<?xml version="1.0" encoding="UTF-8"?>
<svg width="93px" height="59px" viewBox="0 0 93 59" version="1.1" xmlns="http://www.w3.org/2000/svg" xmlns:xlink="http://www.w3.org/1999/xlink">
    <title>Client/Logo/CarNext/Grey</title>
    <g id="Mockups" stroke="none" stroke-width="1" fill="none" fill-rule="evenodd">
        <g id="Home-Page" transform="translate(-977.000000, -807.000000)" fill="#7B91B0" fill-rule="nonzero">
            <g id="Logos" transform="translate(100.000000, 807.000000)">
                <g id="Client/Logo/CarNext/Grey" transform="translate(877.160345, 0.160326)">
                    <g id="carnext_logo" transform="translate(0.000000, -0.000000)">
                        <path d="M46.625,16.869 L46.647,16.87 L46.636,16.87 L46.625,16.869 L46.5672962,16.8682027 L46.461,16.867 L46.5965769,16.8689088 L46.636,16.87 L46.647,16.87 L46.692,16.871 L46.7869506,16.8744528 C46.8701074,16.8771904 46.9530402,16.8813992 47.0356897,16.8866535 C47.0569933,16.8886642 47.0783479,16.8901106 47.0996827,16.8916263 C47.180512,16.8966123 47.2608573,16.9032706 47.3409166,16.9109117 C47.3608355,16.913703 47.3811767,16.9157231 47.4014988,16.9178063 C51.4812755,17.3324029 54.8073966,20.3010519 55.7578962,24.1912191 L57.087,29.883 L75.2624235,3.88872656 C76.9563948,1.43143309 79.8790916,0 83.0403756,0 C88.3608768,0 92.6793103,4.31815648 92.6793103,9.63831612 C92.6793103,11.5707508 92.2379234,13.2168989 91.0807742,14.9465472 L63.1183204,54.8835302 L62.974,55.069 C61.7741751,56.591761 60.126062,57.7393173 58.229839,58.318059 L58.1396291,58.3444478 C58.0704833,58.3654722 58.0005853,58.385199 57.93037,58.4041525 C57.7037313,58.4648269 57.4735839,58.518069 57.2404736,58.5629057 C57.0019383,58.60908 56.7597058,58.6461725 56.5146864,58.6740785 C56.276947,58.7010685 56.0364347,58.7195508 55.7936549,58.7290308 C55.6668518,58.7339858 55.539688,58.7364709 55.4119443,58.7364709 C55.2225351,58.7364711 55.034378,58.7309863 54.8476245,58.7201674 L54.8071128,58.7178363 C50.4497311,58.4485332 46.8773918,55.2893962 45.9877385,51.137947 L42.762,37.333 L35.5495359,47.5712929 C35.4468066,47.7012069 35.3391031,47.8267209 35.2267161,47.9475926 C35.0284212,48.1642641 34.8144677,48.3621606 34.5873979,48.5448828 C34.5437342,48.5799101 34.4993875,48.6148251 34.4545635,48.6491354 C34.4249224,48.6714799 34.3954217,48.6935501 34.3657212,48.7153692 C34.2268301,48.8183287 34.0830712,48.9153594 33.9352326,49.0063652 C33.9237307,49.0123731 33.912299,49.0193594 33.9008435,49.0263103 C33.8571886,49.0538668 33.8130363,49.0799142 33.7685399,49.1054282 C33.7293803,49.1268809 33.6900808,49.1488821 33.6505274,49.1704713 C33.4383297,49.2870395 33.2184453,49.3908167 32.9919958,49.4818635 C32.8484151,49.5396939 32.7020759,49.5924266 32.5533759,49.6397129 L32.3286048,49.7065139 C31.9182343,49.8019428 31.4925942,49.8592001 31.0700081,49.8782859 L30.7539275,49.8854431 C29.6922132,49.8854431 28.7020751,49.6468709 27.8312308,49.2293695 C26.1969065,48.3824383 24.9920396,46.8197904 24.6102996,44.9589275 L24.0496189,41.6547028 L24.068,41.626 L23.22,36.408 L11.152,48.176 L9.40034717,49.8854431 C8.63686721,50.5653736 7.62287037,50.982875 6.52536792,50.982875 C4.47351544,50.9828752 2.7556855,49.5395135 2.32622801,47.6190075 L0.0477174979,34.5691092 C0.0119293743,34.3543942 0,34.1396791 0,33.9130356 C0,31.5392424 1.92062929,29.6187364 4.2945748,29.6187364 C6.37028598,29.6187364 8.10004526,31.0978838 8.505644,33.0541757 L9.05,36.17 L21.249,24.282 L21.246216,24.2627907 L22.6300235,22.9148579 C22.7970347,22.7359288 22.9879047,22.5689283 23.1787747,22.4138563 C24.0734778,21.7100684 25.2067684,21.2925671 26.435494,21.2925671 C27.9318108,21.2925671 29.2821023,21.9150567 30.2464567,22.913597 C30.9877364,23.6759808 31.502909,24.6596926 31.6844188,25.7538669 L32.0184411,27.8294449 L32.008,27.839 L32.328,29.84 L38.8778314,20.4933504 C40.5803237,18.3653717 43.1702152,16.9694506 46.0806004,16.8724562 L46.4052666,16.8670532 L46.625,16.869 Z M51.8232437,38.8856414 C50.3031591,38.8856414 49.2977489,39.9076114 49.2977489,41.4345549 C49.2977489,42.9614983 50.29119,43.9954915 51.7873362,43.9954915 C52.4935172,43.9954915 53.1159139,43.7790743 53.558773,43.3462399 L53.1637904,42.8893592 C52.8166846,43.2380313 52.3379178,43.418379 51.8232437,43.418379 C50.7220801,43.418379 49.9919608,42.6248493 49.9919608,41.446578 C49.9919608,40.2562836 50.7220801,39.4747771 51.8112744,39.4747771 C52.2900412,39.4747771 52.6730545,39.607032 53.0201606,39.8955883 L53.4031739,39.4266844 C52.9603147,39.0659891 52.4576095,38.8856414 51.8232437,38.8856414 Z M48.4958146,42.9855447 C48.2205237,42.9855447 47.9931096,43.213985 47.9931096,43.4905181 C47.9931096,43.755028 48.2205237,43.9954915 48.4958146,43.9954915 C48.7830746,43.9954915 49.0104889,43.755028 49.0104889,43.4905181 C49.0104889,43.213985 48.7711055,42.9855447 48.4958146,42.9855447 Z M56.6348496,38.8736183 C55.1267344,38.8736183 54.1213241,39.8955883 54.1213241,41.4345549 C54.1213241,42.9614983 55.1267344,43.9954915 56.6348496,43.9834683 C58.1190265,43.9834683 59.1244367,42.9614983 59.1244367,41.4345549 C59.1244367,39.8955883 58.1309958,38.8736183 56.6348496,38.8736183 Z M65.587788,38.8736183 C64.7619154,38.8736183 64.1754261,39.2703831 63.8761968,39.8835651 C63.5889369,39.2583599 62.9904785,38.8736183 62.2124824,38.8736183 C61.4464556,38.8736183 60.9078429,39.198244 60.6086138,39.7513102 L60.5966445,38.9698037 L59.9503094,38.9698037 L59.9503094,43.8993061 L60.6205829,43.8993061 L60.6205829,40.9295815 C60.6205829,40.0398664 61.1711647,39.4627539 62.0090064,39.4627539 C62.8348791,39.4627539 63.3854609,40.0398664 63.3854609,40.9295815 L63.3854609,43.8993061 L64.0557344,43.8993061 L64.0557344,40.9295815 C64.0557344,40.0398664 64.6063162,39.4627539 65.4441582,39.4627539 C66.2819999,39.4627539 66.8325817,40.0398664 66.8325817,40.9295815 L66.8325817,43.8993061 L67.5028552,43.8993061 L67.5028552,40.7973265 C67.5028552,39.6431016 66.7368284,38.8736183 65.587788,38.8736183 Z M56.6348496,39.4627539 C57.7001057,39.4627539 58.4182558,40.2442604 58.4182558,41.4345549 C58.4182558,42.6248493 57.7001057,43.418379 56.6348496,43.4063558 C55.5456551,43.4063558 54.8275051,42.6128262 54.8275051,41.4345549 C54.8275051,40.2442604 55.5456551,39.4627539 56.6348496,39.4627539 Z M70.8542224,28.7140341 L70.1839492,28.7140341 L68.1372212,31.6597123 L69.1546005,31.6597123 L69.1546005,34.8338309 C69.1546005,36.3126817 70.2916716,36.9378868 71.1773901,36.9378868 C72.0631086,36.9378868 72.374307,36.7695624 72.374307,36.7695624 L72.374307,35.4229666 C72.374307,35.4229666 71.6441877,35.6273606 71.249205,35.3388044 C70.8661918,35.0622713 70.8661918,34.6534833 70.8542224,34.497182 L70.8542224,31.707805 L72.4102145,31.707805 L72.4102145,30.1568153 L70.8542224,30.1568153 L70.8542224,28.7140341 Z M25.6466707,26.7662795 C22.8099776,26.7662795 20.499928,29.0386598 20.499928,31.84006 C20.499928,34.6294369 22.8099776,36.9018173 25.6466707,36.9018173 C26.7238959,36.9018173 27.7532445,36.5771915 28.6269938,35.9640095 L28.7347163,35.8798473 L27.6933986,34.4130198 L27.5856761,34.497182 C27.0231251,34.8939468 26.3528517,35.110364 25.6466707,35.110364 C23.8153878,35.110364 22.3192417,33.6435364 22.3192417,31.84006 C22.3192417,30.0365835 23.8153878,28.5697559 25.6466707,28.5697559 C26.3408825,28.5697559 27.011156,28.7861731 27.5856761,29.182938 L27.6933986,29.255077 L28.7347163,27.7882495 L28.6269938,27.7040872 C27.7532445,27.0909052 26.7238959,26.7662795 25.6466707,26.7662795 Z M32.6486346,30.0245603 C32.4451588,30.0365835 32.2297137,30.0486067 32.0142687,30.0846762 L29.2374214,34.0763708 C29.5366507,35.723546 30.972951,36.9018173 32.6486346,36.9018173 C33.3548156,36.9018173 33.9772124,36.7094465 34.5756709,36.2645889 L34.5756709,36.7815855 L36.1675704,36.7815855 L36.1675704,30.1568153 L34.5756709,30.1568153 L34.5756709,30.6497655 C34.0011508,30.2169311 33.3428465,30.0245603 32.6486346,30.0245603 Z M57.448753,30.0365835 C57.0058938,30.0365835 56.8502947,30.0846762 56.8502947,30.0846762 L54.1213241,34.0162549 C54.1213241,34.0162549 54.1225748,34.0256772 54.1255049,34.0434448 L54.1397624,34.1207072 C54.2438884,34.6381231 54.8545211,36.9018173 57.5684447,36.9018173 C59.3398818,36.9018173 60.2854462,36.0000791 60.2854462,36.0000791 L59.4356351,34.7977614 C59.4356351,34.7977614 58.6337008,35.4710593 57.6881364,35.4710593 C56.742572,35.4710593 55.8448844,35.0021554 55.6174703,33.9681622 L60.8001205,33.9801854 C60.8719354,33.4150961 60.8120895,32.7778678 60.5966445,32.2007553 C60.1657544,31.022484 59.0286834,30.0365835 57.448753,30.0365835 Z M63.0024476,30.1568153 L60.9437506,30.1568153 L63.2657692,33.5112815 L60.9437506,36.7815855 L63.0024476,36.7815855 L64.3310253,34.9179932 L65.6596032,36.7815855 L67.7183002,36.7815855 L65.3603739,33.475212 L67.7063312,30.1568153 L65.6476339,30.1568153 L64.2951178,32.0564771 L63.0024476,30.1568153 Z M42.2598775,30.0245603 L41.733234,30.0245603 L41.733234,30.0365835 C41.0390222,30.0365835 40.033612,30.3612093 39.4590919,30.7820204 L39.4590919,30.1568153 L37.8432541,30.1568153 L37.8432541,36.7815855 L39.5189377,36.7815855 L39.5189377,33.1024935 C39.5189377,32.1045699 40.883423,31.6957819 42.2598775,31.6957819 L42.2598775,30.0245603 Z M44.8811255,27.0788821 L43.708147,27.0788821 L43.708147,36.7815855 L45.6591214,36.7815855 L45.6591214,30.5415569 L51.7873362,36.7815855 L52.8765305,36.7815855 L52.8765305,27.0788821 L50.9135868,27.0788821 L50.9135868,33.138563 L44.8811255,27.0788821 Z M32.6486346,31.5515037 C33.6899524,31.5635269 34.5756709,32.4291956 34.5756709,33.4631888 C34.5756709,34.5212283 33.7138907,35.3868971 32.6486346,35.3868971 C31.6073169,35.3868971 30.7335676,34.5092052 30.7335676,33.4631888 C30.7335676,32.4291956 31.6073169,31.5515037 32.6486346,31.5515037 Z M57.4607223,31.4673415 C58.8252075,31.4673415 59.1962519,32.7057287 59.1962519,32.7057287 L55.7132236,32.7057287 C55.7012543,32.7177519 56.1082062,31.4673415 57.4607223,31.4673415 Z" id="Combined-Shape"></path>
                    </g>
                </g>
            </g>
        </g>
    </g>
</svg>