<?xml version="1.0" encoding="UTF-8"?>
<svg width="134px" height="20px" viewBox="0 0 134 20" version="1.1" xmlns="http://www.w3.org/2000/svg" xmlns:xlink="http://www.w3.org/1999/xlink">
    <title>Client/Logo/Christies/Grey</title>
    <g id="Mockups" stroke="none" stroke-width="1" fill="none" fill-rule="evenodd">
        <g id="Home-Page" transform="translate(-684.000000, -827.000000)" fill="#7B91B0" fill-rule="nonzero">
            <g id="Logos" transform="translate(100.000000, 807.000000)">
                <g id="Client/Logo/Christies/Grey" transform="translate(584.279749, 20.273973)">
                    <path d="M122.068034,13.8547916 C122.289124,14.7958443 123.670413,18.3936242 127.50054,18.4162259 C128.558675,18.4136733 129.548977,17.9074884 130.153624,17.0601238 C130.385243,16.5834334 131.29066,14.7937896 129.90095,13.3616636 C128.496499,11.8411855 124.719013,9.85223579 123.457745,9.04679334 C122.293336,8.36463291 121.333172,7.12975813 121.31001,4.97848711 C121.278426,3.41486032 122.859748,0.550608356 126.489841,0.540334855 C127.47776,0.566814637 128.456526,0.732918244 129.3956,1.03346288 C129.995703,1.3108474 131.01693,1.368379 131.416998,0.78689887 C131.675989,0.488967352 132.004467,0.519787854 132.048685,0.78689887 L132.048685,6.08802517 C132.004467,6.37157379 131.617032,6.4599259 131.545441,6.08802517 C131.555969,5.75721846 130.896909,3.24021081 128.890251,2.26628295 C126.938339,1.368379 125.409657,1.80808483 124.723224,2.39161966 C124.091537,2.9792639 122.893438,4.61685989 124.723224,6.33664389 C125.08118,6.6078643 128.075375,8.49202431 129.776718,9.41869407 C131.198013,10.2056442 133.417339,11.6090044 133.440501,14.5965384 C133.417339,17.812144 130.538953,18.9545573 129.776718,19.1600273 C129.086074,19.4641229 126.342448,19.7168511 124.723224,18.9134633 C123.245077,18.1470602 122.712354,18.4860857 122.196477,19.0367453 C122.023816,19.3654973 121.573213,19.5709674 121.56479,18.9134633 L121.56479,13.858901 C121.571107,13.4212499 122.112252,13.3637183 122.068034,13.8547916 L122.068034,13.8547916 Z M24.3538642,0.540334855 C24.4503898,0.582706524 24.5035657,0.687631569 24.4808105,0.790821212 C24.5078646,0.884753596 24.4162968,0.976598594 24.3538642,0.916064391 C23.9667823,0.980773366 22.2623732,0.99538507 22.2311569,2.66946889 L22.2311569,9.18211417 L30.5971211,9.18211417 L30.5971211,2.66946889 C30.6200131,0.997472457 28.9156039,0.982860752 28.5992789,0.916064391 C28.4660894,0.976598594 28.3745217,0.884753596 28.3495486,0.790821212 C28.3702989,0.662081668 28.470928,0.561147969 28.5992789,0.540334855 L35.5917266,0.540334855 C35.7353215,0.567470877 35.8268893,0.657228489 35.8414569,0.790821212 C35.8268893,0.884753596 35.7353215,0.976598594 35.5917266,0.916064391 C35.285807,0.980773366 33.5813979,0.99538507 33.5938844,2.66946889 L33.5938844,17.3229208 C33.5813979,18.9782181 35.285807,18.9928298 35.5917266,18.9510821 C35.7353215,18.999092 35.8268893,19.090937 35.8414569,19.2015684 C35.8268893,19.3184621 35.7353215,19.4082197 35.5917266,19.4520548 L28.5992789,19.4520548 C28.4660894,19.4103071 28.3745217,19.3184621 28.3495486,19.2015684 C28.3745217,19.090937 28.4660894,18.999092 28.5992789,18.9510821 C28.9156039,18.9928298 30.6200131,18.9782181 30.5971211,17.3229208 L30.5971211,10.3093028 L22.2311569,10.3093028 L22.2311569,17.3229208 C22.2623732,18.9782181 23.9667823,18.9928298 24.3538642,18.9510821 C24.4183779,18.999092 24.5099457,19.090937 24.4808105,19.2015684 C24.5078646,19.3184621 24.4162968,19.4082197 24.3538642,19.4520548 L17.2365514,19.4520548 C17.1470647,19.4103071 17.0534159,19.3184621 17.1116863,19.2015684 C17.055497,19.090937 17.1470647,18.999092 17.2365514,18.9510821 C17.5965792,18.9928298 19.3009883,18.9782181 19.3613398,17.3229208 L19.3613398,2.66946889 C19.2989073,0.997472457 17.5965792,0.982860752 17.2365514,0.916064391 C17.1470647,0.976598594 17.0534159,0.884753596 17.1116863,0.790821212 C17.055497,0.657228489 17.1470647,0.567470877 17.2365514,0.540334855 Z M9.14181232,0.540334855 C11.0001647,0.585954691 12.5304481,0.822348385 13.8427243,1.28684126 C14.2406403,1.42162714 14.9920242,1.77621768 15.6206469,0.789170323 C15.7476413,0.536187598 16.1392076,0.417990751 16.2556192,0.913588056 C16.2595793,1.27827918 16.5895402,5.42479469 16.6320994,5.95831098 L16.6366026,6.01471514 C16.6514187,6.35479027 16.3233496,6.38174745 16.2556192,6.13913287 C15.112669,3.34180749 12.8458177,1.46102608 10.0328902,1.41125899 C5.8230235,1.46006902 3.23784535,5.09524324 3.17591468,9.60537431 L3.17518879,9.87166488 C3.13497388,14.5559925 5.74047709,18.4502676 10.2847626,18.4564885 C12.7082404,18.4502676 15.3560751,17.129366 16.6344861,15.0972097 C16.8313275,14.8255643 17.2694584,14.9997491 17.017586,15.4704629 C14.8353977,18.705324 11.6478365,19.4621985 9.01693442,19.4518304 C3.63236889,19.4891557 -0.0398878796,14.8649633 0.000327036022,9.87166488 C-0.0398878796,4.80993675 4.15727936,0.585954691 9.14181232,0.540334855 Z M98.9958979,0.540334855 C99.1095685,0.567470877 99.2039365,0.657228489 99.2532652,0.790821212 C99.2039365,0.884753596 99.1095685,0.976598594 98.9958979,0.916064391 C98.6463074,0.982860752 96.8897755,0.997472457 96.9369595,2.66946889 L96.9369595,17.3229208 C96.8897755,18.9782181 98.6463074,18.9928298 98.9958979,18.9510821 C99.1108694,19.0002923 99.2027032,19.0896709 99.2532652,19.2015684 C99.2066122,19.3160171 99.1134906,19.4066491 98.9958979,19.4520548 L91.7917583,19.4520548 C91.6180353,19.4082197 91.5236673,19.3184621 91.534391,19.2015684 C91.5236673,19.090937 91.6180353,18.999092 91.7917583,18.9510821 C92.0812965,18.9928298 93.8378283,18.9782181 93.8506967,17.3229208 L93.8506967,2.66946889 C93.8378283,0.99538507 92.0812965,0.980773366 91.7917583,0.916064391 C91.6180353,0.976598594 91.5236673,0.884753596 91.534391,0.790821212 C91.5236673,0.657228489 91.6180353,0.567470877 91.7917583,0.540334855 L98.9958979,0.540334855 L98.9958979,0.540334855 Z M54.4011568,18.9490502 C53.9457048,19.0074906 52.8513548,18.1601053 52.1238967,17.1958392 L46.9368041,10.3082246 C49.2478014,9.62989896 51.37957,7.99565586 51.3669185,5.17382103 C51.37957,2.67758253 48.7080065,0.567467883 46.4328549,0.540334855 L37.1972999,0.540334855 C37.0391568,0.567467883 36.9463795,0.657215588 36.944271,0.790793568 C36.9463795,0.884715585 37.0370482,0.976550446 37.1972999,0.916022924 C37.4946088,0.982811914 39.2194225,0.997422005 39.2215311,2.66923391 L39.2215311,17.3210686 C39.2194225,18.9761832 37.4946088,18.9907933 37.1972999,18.9490502 C37.0391568,18.9970548 36.9463795,19.0888897 36.944271,19.1995089 C36.9463795,19.3163897 37.0370482,19.4082245 37.1972999,19.4499676 L44.2821092,19.4499676 C44.4022567,19.4116516 44.4964288,19.318436 44.5351381,19.1995089 C44.4917872,19.0834568 44.3993522,18.9919607 44.2821092,18.9490502 C43.951063,18.9907933 42.2220322,18.9761832 42.257878,17.3210686 L42.257878,2.04308713 C44.6553268,0.893064209 48.0480227,2.11196328 48.0775428,5.30113755 C48.0480227,8.53205494 45.7370254,9.36483015 44.1577033,9.30847694 L42.2599865,9.30847694 L42.2599865,10.5607705 L43.77816,10.5607705 C43.77816,10.5607705 49.3426873,17.8658163 49.8508537,18.4502199 C50.29998,19.1118484 50.7512149,19.4103117 51.622056,19.4520548 L61.6166977,19.4520548 C61.7010407,19.4082245 61.793818,19.3184768 61.7432122,19.2015961 C61.793818,19.0909768 61.6989321,18.999142 61.6166977,18.9511374 C61.2455887,18.9928805 59.5186664,18.9782704 59.4659521,17.3231557 L59.4659521,2.67132107 C59.5186664,0.997422005 61.2455887,0.982811914 61.6166977,0.91811008 C61.7010407,0.978637602 61.793818,0.886802741 61.7432122,0.792880724 C61.793818,0.659302744 61.6989321,0.569555039 61.6166977,0.542422011 L54.405374,0.542422011 C54.3044861,0.581366119 54.2498018,0.689623763 54.2788595,0.792880724 C54.2409052,0.886802741 54.3336824,0.978637602 54.405374,0.91811008 C54.791243,0.98489907 56.5181653,0.999509161 56.5582282,2.67132107 L56.5582282,17.3231557 C56.5139482,18.9761832 54.7870259,18.9907933 54.4011568,18.9490502 L54.4011568,18.9490502 Z M90.856248,0.540334855 C90.8630682,0.552933723 90.8766738,1.41955581 90.8958048,2.34362809 L90.9050222,2.77130171 C90.9258234,3.69419718 90.951956,4.55199314 90.9821598,4.54811656 C90.9313678,4.65911063 90.8419228,4.74808069 90.7303361,4.79860292 C90.6107199,4.75059304 90.5204831,4.65874804 90.4785124,4.54811656 C90.5120889,2.1037872 88.3317155,1.75519369 87.4587268,1.79276664 C87.4587268,1.79276664 86.3491951,1.77884547 85.4747134,1.7764244 L84.9581561,1.77670233 C84.6530111,1.77827726 84.4439593,1.782965 84.4368426,1.79276664 L84.430547,17.3229208 C84.4746161,18.9782181 86.1912142,18.9928298 86.5731468,18.9510821 C86.6465954,18.999092 86.7389308,19.090937 86.6990587,19.2015684 C86.7368322,19.3184621 86.6444969,19.4082197 86.5731468,19.4520548 L79.3961719,19.4520548 C79.3143292,19.4103071 79.2240924,19.3184621 79.27026,19.2015684 C79.2219938,19.090937 79.3143292,18.999092 79.3961719,18.9510821 C79.7676118,18.9928298 81.488407,18.9782181 81.5366732,17.3229208 L81.5366732,1.79276664 C81.5279141,1.782965 81.3180769,1.77827726 81.012668,1.77670233 L80.4960641,1.7764244 C79.6219881,1.77884547 78.514789,1.79276664 78.514789,1.79276664 C77.6355046,1.75519369 75.4530327,2.1037872 75.4950033,4.54811656 C75.4455304,4.66001415 75.3556746,4.74939272 75.2431796,4.79860292 C75.1285345,4.75257188 75.0376328,4.66215283 74.991356,4.54811656 C75.0176625,4.55199314 75.0512069,3.69419718 75.0774973,2.77130171 L75.0890635,2.34362809 C75.112779,1.41955581 75.127011,0.552933723 75.1172678,0.540334855 Z M68.6502999,0.540334855 C69.6479156,0.575624159 70.6359497,0.741515286 71.5873306,1.03346288 C72.147069,1.3108474 73.1750298,1.368379 73.6304824,0.78689887 C73.8433107,0.488967352 74.1753228,0.519787854 74.1412703,0.78689887 L74.1412703,6.08802517 C74.1753228,6.37157379 73.7815905,6.4599259 73.7560511,6.08802517 C73.7198702,5.75721846 73.0537176,3.24021081 71.0744144,2.26628295 C69.0525454,1.368379 67.5074119,1.80808483 66.8604139,2.39161966 C66.1729784,2.9792639 64.9619854,4.61685989 66.7327169,6.33664389 C67.1753998,6.6078643 70.19969,8.49202431 71.8405963,9.41869407 C73.3559338,10.2056442 75.5991442,11.6090044 75.5416806,14.5965384 C75.5970159,17.812144 72.687653,18.9545573 71.966165,19.1600273 C71.2191376,19.4641229 68.4459848,19.7168511 66.8582856,18.9134633 C65.3174086,18.1470602 64.7768247,18.4860857 64.1766489,19.0367453 C64.0808762,19.3654973 63.6275519,19.5709674 63.665861,18.9134633 L63.665861,13.858901 C63.6296801,13.4212499 64.1766489,13.3637183 64.1787772,13.8547916 C64.3554247,14.7958443 65.7494501,18.3936242 69.5441788,18.4162259 C71.1148518,18.3956789 71.9938327,17.5162672 72.2258155,17.0601238 C72.5386731,16.5834334 73.4538349,14.7937896 72.0981185,13.3616636 C70.6317315,11.8411855 66.8114634,9.85223579 65.4578753,9.04679334 C64.3596812,8.36463291 63.3870559,7.12975813 63.4147236,4.97848711 C63.3338488,3.41486032 64.9321894,0.550608356 68.6502999,0.540334855 Z M111.403099,18.1975356 C112.311572,18.2184095 114.988399,17.6527278 115.966592,14.8159698 C115.928563,14.7220374 116.01941,14.6301924 116.093356,14.6907266 C116.249698,14.6301924 116.34477,14.7220374 116.346883,14.8159698 C116.329981,14.8243194 114.870086,19.4082197 114.825719,19.4520548 L100.50142,19.4520548 C100.40846,19.4082197 100.3155,19.3184621 100.374656,19.2015684 C100.3155,19.090937 100.40846,18.999092 100.50142,18.9510821 C100.866922,18.9928298 102.595134,18.9782181 102.658515,17.3229208 L102.658515,2.66946889 C102.597246,0.99538507 100.866922,0.980773366 100.50142,0.916064391 C100.40846,0.976598594 100.3155,0.884753596 100.374656,0.790821212 C100.3155,0.657228489 100.40846,0.567470877 100.50142,0.540334855 L114.701068,0.540334855 C114.690504,0.567470877 114.736984,4.55646611 114.701068,4.54811656 C114.74966,4.65874804 114.6567,4.75059304 114.572191,4.79860292 C114.428526,4.75059304 114.335566,4.65874804 114.318664,4.54811656 C114.327115,2.1037872 112.13199,1.75519369 111.278448,1.79276664 C111.278448,1.79276664 107.9509,1.75519369 105.574081,1.79276664 L105.574081,8.43065509 L111.151684,8.43065509 C112.810176,8.41186862 112.824965,6.70438662 112.799612,6.42676424 C112.833416,6.25142379 112.926376,6.15957879 113.053139,6.17627788 C113.15455,6.15957879 113.24751,6.25142379 113.306667,6.42676424 L113.306667,11.6869777 C113.24751,11.7621236 113.15455,11.8539686 113.053139,11.8143083 C112.924263,11.856056 112.833416,11.764211 112.799612,11.6869777 C112.824965,11.3112482 112.810176,9.60167881 111.151684,9.5578437 L105.574081,9.5578437 L105.574081,18.199623 L111.403099,18.199623 L111.403099,18.1975356 Z M118.145402,3.18917149 C117.295653,3.15252638 116.615298,2.48815528 116.577771,1.65836917 C116.590835,0.737761671 117.307155,0.0382700579 118.145402,0 C119.059854,0.0297656006 120.764652,0.66334767 120.758139,3.44430521 C120.703689,6.11257869 117.385537,7.26280654 116.708407,7.52644472 C116.394881,7.6880294 116.146672,7.29469825 116.577771,7.14374414 C116.952261,6.99066391 119.665133,6.17210989 118.929218,3.06160463 C118.765923,3.1466492 118.487233,3.1764148 118.145402,3.18917149 L118.145402,3.18917149 Z" id="Shape"></path>
                </g>
            </g>
        </g>
    </g>
</svg>