<?xml version="1.0" encoding="UTF-8"?>
<svg width="134px" height="46px" viewBox="0 0 134 46" version="1.1" xmlns="http://www.w3.org/2000/svg" xmlns:xlink="http://www.w3.org/1999/xlink">
    <title>Client/Logo/CIX/Grey</title>
    <defs>
        <linearGradient x1="98.9235037%" y1="44.3584874%" x2="6.38305451%" y2="53.7801192%" id="linearGradient-1">
            <stop stop-color="#527A43" offset="0%"></stop>
            <stop stop-color="#976B27" offset="100%"></stop>
        </linearGradient>
        <linearGradient x1="98.9235037%" y1="44.3584874%" x2="6.38305451%" y2="53.7801192%" id="linearGradient-2">
            <stop stop-color="#7B91B0" offset="0%"></stop>
            <stop stop-color="#7B91B0" offset="100%"></stop>
        </linearGradient>
        <radialGradient cx="-24.9108312%" cy="-12.3675264%" fx="-24.9108312%" fy="-12.3675264%" r="443.027681%" gradientTransform="translate(-0.249108,-0.123675),scale(0.448313,1.000000),rotate(-11.889223),translate(0.249108,0.123675)" id="radialGradient-3">
            <stop stop-color="#36804A" offset="13%"></stop>
            <stop stop-color="#31735B" offset="27%"></stop>
            <stop stop-color="#214F89" offset="55%"></stop>
            <stop stop-color="#1D4A8E" offset="59%"></stop>
        </radialGradient>
        <radialGradient cx="-24.9108312%" cy="-12.3675264%" fx="-24.9108312%" fy="-12.3675264%" r="443.027681%" gradientTransform="translate(-0.249108,-0.123675),scale(0.448313,1.000000),rotate(-11.889223),translate(0.249108,0.123675)" id="radialGradient-4">
            <stop stop-color="#7B91B0" offset="13%"></stop>
            <stop stop-color="#7B91B0" offset="27%"></stop>
            <stop stop-color="#7B91B0" offset="55%"></stop>
            <stop stop-color="#7B91B0" offset="59%"></stop>
        </radialGradient>
        <linearGradient x1="0.036556715%" y1="49.8560614%" x2="100.052068%" y2="49.8560614%" id="linearGradient-5">
            <stop stop-color="#814F20" offset="0%"></stop>
            <stop stop-color="#9A5F22" offset="28%"></stop>
            <stop stop-color="#B06A28" offset="49%"></stop>
            <stop stop-color="#AD6A28" offset="54%"></stop>
            <stop stop-color="#9E6125" offset="77%"></stop>
            <stop stop-color="#9C6124" offset="100%"></stop>
        </linearGradient>
        <linearGradient x1="0.036556715%" y1="49.8560614%" x2="100.052068%" y2="49.8560614%" id="linearGradient-6">
            <stop stop-color="#7B91B0" offset="0%"></stop>
            <stop stop-color="#7B91B0" offset="28%"></stop>
            <stop stop-color="#7B91B0" offset="49%"></stop>
            <stop stop-color="#7B91B0" offset="54%"></stop>
            <stop stop-color="#7B91B0" offset="77%"></stop>
            <stop stop-color="#7B91B0" offset="100%"></stop>
        </linearGradient>
        <radialGradient cx="86.6946416%" cy="93.0891748%" fx="86.6946416%" fy="93.0891748%" r="117.799483%" gradientTransform="translate(0.866946,0.930892),scale(0.854009,1.000000),rotate(-11.889223),translate(-0.866946,-0.930892)" id="radialGradient-7">
            <stop stop-color="#A46827" offset="0%"></stop>
            <stop stop-color="#CF9349" offset="52%"></stop>
            <stop stop-color="#D1954F" offset="66%"></stop>
            <stop stop-color="#D7A05C" offset="80%"></stop>
            <stop stop-color="#E0B071" offset="94%"></stop>
            <stop stop-color="#E2B477" offset="99%"></stop>
        </radialGradient>
        <radialGradient cx="86.6946416%" cy="93.0891748%" fx="86.6946416%" fy="93.0891748%" r="117.799483%" gradientTransform="translate(0.866946,0.930892),scale(0.854009,1.000000),rotate(-11.889223),translate(-0.866946,-0.930892)" id="radialGradient-8">
            <stop stop-color="#7B91B0" offset="0%"></stop>
            <stop stop-color="#7B91B0" offset="52%"></stop>
            <stop stop-color="#7B91B0" offset="66%"></stop>
            <stop stop-color="#7B91B0" offset="80%"></stop>
            <stop stop-color="#7B91B0" offset="94%"></stop>
            <stop stop-color="#7B91B0" offset="99%"></stop>
        </radialGradient>
        <radialGradient cx="18.4287217%" cy="55.924588%" fx="18.4287217%" fy="55.924588%" r="71.6956598%" gradientTransform="translate(0.184287,0.559246),scale(0.911663,1.000000),rotate(-11.889223),translate(-0.184287,-0.559246)" id="radialGradient-9">
            <stop stop-color="#AFD188" offset="35%"></stop>
            <stop stop-color="#A8CD80" offset="47%"></stop>
            <stop stop-color="#8CC269" offset="66%"></stop>
            <stop stop-color="#71B650" offset="84%"></stop>
        </radialGradient>
        <radialGradient cx="18.4287217%" cy="55.924588%" fx="18.4287217%" fy="55.924588%" r="71.6956598%" gradientTransform="translate(0.184287,0.559246),scale(0.911663,1.000000),rotate(-11.889223),translate(-0.184287,-0.559246)" id="radialGradient-10">
            <stop stop-color="#7B91B0" offset="35%"></stop>
            <stop stop-color="#7B91B0" offset="47%"></stop>
            <stop stop-color="#7B91B0" offset="66%"></stop>
            <stop stop-color="#7B91B0" offset="84%"></stop>
        </radialGradient>
        <radialGradient cx="11.7732802%" cy="-6.12228554%" fx="11.7732802%" fy="-6.12228554%" r="205.357273%" gradientTransform="translate(0.117733,-0.061223),scale(0.834127,1.000000),rotate(-11.889223),translate(-0.117733,0.061223)" id="radialGradient-11">
            <stop stop-color="#60C3F0" offset="0%"></stop>
            <stop stop-color="#5FAEE1" offset="30%"></stop>
            <stop stop-color="#4786C6" offset="44%"></stop>
            <stop stop-color="#3D6AB0" offset="58%"></stop>
            <stop stop-color="#3556A1" offset="72%"></stop>
            <stop stop-color="#2F4997" offset="84%"></stop>
            <stop stop-color="#2F4593" offset="95%"></stop>
        </radialGradient>
        <radialGradient cx="11.7732802%" cy="-6.12228554%" fx="11.7732802%" fy="-6.12228554%" r="205.357273%" gradientTransform="translate(0.117733,-0.061223),scale(0.834127,1.000000),rotate(-11.889223),translate(-0.117733,0.061223)" id="radialGradient-12">
            <stop stop-color="#7B91B0" offset="0%"></stop>
            <stop stop-color="#7B91B0" offset="30%"></stop>
            <stop stop-color="#7B91B0" offset="44%"></stop>
            <stop stop-color="#7B91B0" offset="58%"></stop>
            <stop stop-color="#7B91B0" offset="72%"></stop>
            <stop stop-color="#7B91B0" offset="84%"></stop>
            <stop stop-color="#7B91B0" offset="95%"></stop>
        </radialGradient>
    </defs>
    <g id="Mockups" stroke="none" stroke-width="1" fill="none" fill-rule="evenodd">
        <g id="Home-Page" transform="translate(-391.000000, -814.000000)" fill-rule="nonzero">
            <g id="Logos" transform="translate(100.000000, 807.000000)">
                <g id="Client/Logo/CIX/Grey" transform="translate(291.231034, 7.238342)">
                    <g id="cix" transform="translate(0.000000, -0.000000)">
                        <g id="Group" transform="translate(53.087491, 9.367351)" fill="#7B91B0">
                            <path d="M0,6.06426193 C0,5.33974522 0.121658834,4.63804793 0.376036396,3.95346521 C0.624884011,3.26888249 0.989860513,2.64705319 1.47649585,2.0879773 C1.95760124,1.52890141 2.54377562,1.08392264 3.23501899,0.747336136 C3.92626237,0.410749632 4.7059849,0.245308808 5.57418658,0.245308808 C6.61381661,0.245308808 7.51519797,0.479207904 8.27280071,0.952710953 C9.03040345,1.426214 9.59445804,2.03663359 9.9539046,2.78967459 L8.28386061,3.98769435 C8.09031246,3.54842043 7.84146485,3.20612907 7.53731776,2.95511541 C7.22764073,2.70410175 6.89584391,2.52154635 6.5419273,2.41315409 C6.18801069,2.30476183 5.84515398,2.24771327 5.51335716,2.24771327 C4.96036246,2.24771327 4.47925707,2.36181039 4.07004099,2.59000463 C3.66082491,2.81819887 3.32349815,3.12055623 3.05253074,3.49137187 C2.78156334,3.86218751 2.5769553,4.278642 2.43870663,4.74073534 C2.30045795,5.20282867 2.23409859,5.66492201 2.23409859,6.13842506 C2.23409859,6.64045239 2.31151785,7.13107 2.47188631,7.61027791 C2.63225477,8.08948581 2.8589826,8.51164516 3.14653984,8.87675594 C3.43409709,9.24186673 3.78801369,9.53281438 4.19722977,9.74959891 C4.60644585,9.96638344 5.05437156,10.0690708 5.54100689,10.0690708 C5.87833366,10.0690708 6.23225027,10.0063174 6.59169682,9.88651545 C6.95114338,9.76671348 7.28847015,9.57274837 7.59261723,9.310325 C7.90229426,9.04790162 8.15114188,8.6999054 8.33916008,8.27774606 L10.119803,9.3616687 C9.88754524,9.94356401 9.51703879,10.4341816 9.01381361,10.8392264 C8.51058843,11.2442712 7.94653384,11.5523334 7.32717977,11.7577082 C6.70782571,11.9687879 6.08847165,12.0714753 5.46911758,12.0714753 C4.66174532,12.0714753 3.92626237,11.9003296 3.26266873,11.5523334 C2.59907509,11.2043372 2.0239606,10.7479487 1.53732527,10.1717583 C1.05068993,9.5955678 0.669123587,8.95091907 0.398156184,8.23210721 C0.132718728,7.52470507 0,6.80018836 0,6.06426193 Z" id="Path"></path>
                            <path d="M11.3861609,0 L13.5207204,0 L13.5207204,9.24757158 C13.5207204,9.65261636 13.5815498,9.92644945 13.7142686,10.063366 C13.8469873,10.2002825 14.0128857,10.2687408 14.2230237,10.2687408 C14.4165718,10.2687408 14.5990601,10.2459214 14.7704884,10.2002825 C14.9474467,10.1546437 15.1022853,10.0975951 15.2405339,10.0177271 L15.5280912,11.7120694 C15.2405339,11.8546908 14.9087371,11.963083 14.5327007,12.042951 C14.1566643,12.1171142 13.8082777,12.1570481 13.4875407,12.1570481 C12.8184171,12.1570481 12.2986021,11.9744928 11.9336256,11.6036771 C11.5686491,11.2385663 11.3861609,10.7194244 11.3861609,10.0462514 L11.3861609,0 Z" id="Path"></path>
                            <path d="M16.4515923,2.16784528 L16.4515923,0 L18.569562,0 L18.569562,2.16784528 L16.4515923,2.16784528 Z M16.4515923,11.9916073 L16.4515923,3.38297961 L18.569562,3.38297961 L18.569562,11.9916073 L16.4515923,11.9916073 Z" id="Shape"></path>
                            <path d="M33.4782991,11.9916073 L31.3437396,11.9916073 L31.3437396,7.23375741 C31.3437396,6.55487955 31.2276107,6.05855708 31.0008829,5.74479 C30.7741551,5.43102291 30.4589481,5.2769918 30.0552619,5.2769918 C29.629456,5.2769918 29.2312998,5.44243263 28.8607934,5.77331428 C28.4902869,6.10419592 28.2248495,6.52635527 28.064481,7.04549716 L28.064481,12.003017 L25.9133316,12.003017 L25.9133316,7.23375741 C25.9133316,6.55487955 25.8027327,6.05855708 25.5760049,5.74479 C25.354807,5.43102291 25.0396,5.2769918 24.6359139,5.2769918 C24.2211679,5.2769918 23.8230117,5.43672777 23.4414453,5.75619971 C23.059879,6.07567164 22.7889116,6.49783099 22.6285431,7.02267774 L22.6285431,11.9916073 L20.5105734,11.9916073 L20.5105734,3.46855245 L22.434995,3.46855245 L22.434995,5.06020727 C22.7557319,4.50683624 23.1815378,4.0846769 23.7179427,3.78231953 C24.2543475,3.47996216 24.8626417,3.33734076 25.5428252,3.33734076 C26.2340686,3.33734076 26.7704734,3.50848644 27.1575697,3.85648266 C27.544666,4.20447887 27.7935136,4.63234307 27.8985826,5.14007526 C28.2359094,4.55817995 28.6727752,4.10749632 29.1981202,3.7994341 C29.7234651,3.49137187 30.3206994,3.33734076 30.989823,3.33734076 C31.4985781,3.33734076 31.9188541,3.43432331 32.239591,3.62258356 C32.5658579,3.81084381 32.8147055,4.06756233 32.9971937,4.38703427 C33.179682,4.7065062 33.3013408,5.06591213 33.3732301,5.46525205 C33.4395895,5.86459197 33.4782991,6.26393189 33.4782991,6.66897667 L33.4782991,11.9916073 L33.4782991,11.9916073 Z" id="Path"></path>
                            <path d="M34.7667768,9.48147068 C34.7667768,8.92809964 34.9160854,8.44889174 35.2202324,8.03814211 C35.5243795,7.62739248 35.9446555,7.30221568 36.4810604,7.07402144 C37.0174652,6.8458272 37.6423492,6.72602523 38.3501824,6.72602523 C38.6985691,6.72602523 39.0580157,6.75454951 39.4174622,6.80589321 C39.7769088,6.86294177 40.0921157,6.94851461 40.3575532,7.06831659 L40.3575532,6.59481354 C40.3575532,6.06996679 40.2027147,5.65921716 39.8930377,5.3682695 C39.5833606,5.07732184 39.124375,4.93470044 38.505021,4.93470044 C38.0349755,4.93470044 37.5981097,5.01456843 37.1833636,5.18000925 C36.7686176,5.34545007 36.3317518,5.57934917 35.8782961,5.8874114 L35.2091725,4.45549254 C35.7511074,4.07326719 36.309632,3.78802439 36.8902764,3.61117385 C37.4709209,3.42861846 38.079215,3.33734076 38.7151589,3.33734076 C39.9040976,3.33734076 40.8275987,3.63969813 41.4967223,4.23870801 C42.1603159,4.83771789 42.4921127,5.704856 42.4921127,6.84012235 L42.4921127,9.54422409 C42.4921127,9.77241833 42.5308224,9.9321543 42.6137716,10.0291369 C42.6911908,10.1261194 42.8239096,10.1888728 43.0063978,10.2059874 L43.0063978,11.9973122 C42.8128497,12.0315413 42.6414213,12.0600656 42.4865828,12.0771802 C42.3317443,12.0942947 42.2045555,12.1057044 42.0939566,12.0942947 C41.6681506,12.0942947 41.3474137,11.9973122 41.1317458,11.8090519 C40.9160779,11.6150868 40.7833591,11.3811877 40.7391195,11.0959449 L40.68935,10.6509662 C40.3188436,11.1358789 39.859858,11.5066946 39.3179232,11.7691179 C38.7759884,12.0315413 38.2229937,12.162753 37.6589391,12.162753 C37.1059444,12.162753 36.6082491,12.042951 36.1713833,11.8033471 C35.7345175,11.5637431 35.3861309,11.2442712 35.1372832,10.8392264 C34.8884356,10.4284768 34.7667768,9.97779315 34.7667768,9.48147068 Z M39.959397,9.89222031 C40.0755259,9.78382805 40.169535,9.66402607 40.2469543,9.52140467 C40.3188436,9.38448813 40.3575532,9.26468615 40.3575532,9.1677036 L40.3575532,8.31768005 C40.1031756,8.20928779 39.8266783,8.1294198 39.5280612,8.06666639 C39.229444,8.00391297 38.9474167,7.98109355 38.6819793,7.98109355 C38.1289846,7.98109355 37.6755289,8.10089552 37.3216123,8.34049948 C36.9676957,8.58010343 36.7907374,8.89957536 36.7907374,9.29321043 C36.7907374,9.5042901 36.8515668,9.70966492 36.9676957,9.90933488 C37.0838246,10.1090048 37.249723,10.2630359 37.4709209,10.3828379 C37.6865888,10.5026399 37.9575562,10.5596885 38.2727632,10.5596885 C38.5935001,10.5596885 38.9031771,10.496935 39.2128542,10.3657234 C39.5170013,10.2459214 39.7658489,10.0861854 39.959397,9.89222031 Z" id="Shape"></path>
                            <path d="M49.4045465,11.569448 C49.2109984,11.6550208 48.9953304,11.7462985 48.7409529,11.8432811 C48.4921052,11.9345588 48.2211378,12.0144267 47.9280506,12.0714753 C47.6349635,12.1285239 47.3418763,12.162753 47.0432591,12.162753 C46.639573,12.162753 46.2745965,12.0942947 45.9427997,11.9516733 C45.6110029,11.8090519 45.3510953,11.5865625 45.1520173,11.2785003 C44.9529392,10.9704381 44.8589301,10.5653933 44.8589301,10.0690708 L44.8589301,5.15148497 L43.7750604,5.15148497 L43.7750604,3.46855245 L44.8589301,3.46855245 L44.8589301,0.673173008 L47.0100794,0.673173008 L47.0100794,3.46855245 L48.7630726,3.46855245 L48.7630726,5.14578011 L47.0100794,5.14578011 L47.0100794,9.31602985 C47.0211393,9.60697751 47.0985586,9.82376204 47.2478672,9.95497373 C47.3971757,10.0918903 47.5851939,10.1546437 47.8229817,10.1546437 C48.0331196,10.1546437 48.2487876,10.1147097 48.4589256,10.0291369 C48.6690635,9.94926887 48.8460218,9.87510574 48.9842705,9.80664747 L49.4045465,11.569448 Z" id="Path"></path>
                            <path d="M54.2764298,12.1570481 C53.6073062,12.1570481 53.004542,12.042951 52.4626072,11.8090519 C51.9206724,11.5751528 51.4616868,11.2556809 51.0745905,10.8506361 C50.6874942,10.4455913 50.399937,9.98349801 50.2008589,9.45865125 C50.0017808,8.9338045 49.8967118,8.38043347 49.8967118,7.78712844 C49.8967118,6.98274375 50.0736701,6.24681732 50.4275867,5.56793946 C50.7815033,4.88906159 51.2902584,4.34710027 51.9427922,3.9420555 C52.5953259,3.53701072 53.3805784,3.33163591 54.2930196,3.33163591 C55.194401,3.33163591 55.9685936,3.53701072 56.6155974,3.9420555 C57.2626012,4.34710027 57.7602964,4.88335674 58.114213,5.54512004 C58.4681296,6.20688333 58.639558,6.92569519 58.639558,7.70726046 C58.639558,7.84988186 58.634028,7.98109355 58.6229681,8.10660038 C58.6119083,8.23210721 58.6008484,8.33479462 58.5897885,8.42607232 L52.1529302,8.42607232 C52.1861098,8.87675594 52.3022387,9.25898129 52.5123767,9.57274837 C52.7169847,9.88651545 52.9824222,10.1318243 53.3086891,10.3029699 C53.634956,10.4741156 53.9722827,10.5596885 54.3372592,10.5596885 C54.774125,10.5596885 55.1778112,10.4512962 55.5538476,10.2402165 C55.929884,10.0291369 56.1897915,9.7381892 56.3280401,9.37878327 L58.1418628,9.90363002 C57.9483146,10.3429039 57.6718173,10.7308341 57.2957809,11.0674206 C56.9252744,11.409712 56.4828787,11.6721354 55.9741235,11.8661005 C55.4653684,12.0600656 54.9013138,12.1570481 54.2764298,12.1570481 Z M52.0921007,7.05120202 L56.4552289,7.05120202 C56.4109893,6.62333782 56.2948605,6.25252218 56.0957824,5.93305024 C55.8967043,5.61928316 55.6423267,5.37397435 55.3215898,5.19712382 C55.0008529,5.02027328 54.6469363,4.93470044 54.25431,4.93470044 C53.8727437,4.93470044 53.524357,5.02027328 53.20915,5.19712382 C52.8939431,5.37397435 52.6395655,5.61928316 52.4460173,5.93305024 C52.2579991,6.24681732 52.1363403,6.62333782 52.0921007,7.05120202 Z" id="Shape"></path>
                            <polygon id="Path" points="11.3032117 28.8779811 11.3032117 17.2172554 13.4986006 17.2172554 13.4986006 28.8836859 11.3032117 28.8836859"></polygon>
                            <path d="M28.6119458,28.8779811 L26.4773862,28.8779811 L26.4773862,24.1201312 C26.4773862,23.4412533 26.3612573,22.9449308 26.1345295,22.6311638 C25.9078017,22.3173967 25.5925947,22.1633656 25.1889086,22.1633656 C24.7631027,22.1633656 24.3649465,22.3288064 23.99444,22.659688 C23.6239336,22.9905697 23.3584961,23.412729 23.1981277,23.9318709 L23.1981277,28.8893908 L21.0469783,28.8893908 L21.0469783,24.1201312 C21.0469783,23.4412533 20.9363793,22.9449308 20.7096515,22.6311638 C20.4884536,22.3173967 20.1732467,22.1633656 19.7695605,22.1633656 C19.3548145,22.1633656 18.9566583,22.3231015 18.575092,22.6425735 C18.1935256,22.9620454 17.9225582,23.3842048 17.7621898,23.9090515 L17.7621898,28.8779811 L15.64975,28.8779811 L15.64975,20.3549262 L17.5741716,20.3549262 L17.5741716,21.946581 C17.8949085,21.39321 18.3207144,20.9710507 18.8571193,20.6686933 C19.3935241,20.3663359 20.0018183,20.2237145 20.6820018,20.2237145 C21.3732452,20.2237145 21.90965,20.3948602 22.2967463,20.7428564 C22.6838426,21.0908526 22.9326902,21.5187168 23.0377592,22.026449 C23.375086,21.4445537 23.8119518,20.9938701 24.3372967,20.6858079 C24.8626417,20.3777456 25.459876,20.2237145 26.1289996,20.2237145 C26.6377547,20.2237145 27.0580307,20.3206971 27.3787676,20.5089573 C27.7050345,20.6972176 27.9538821,20.9539361 28.1363703,21.273408 C28.3188586,21.59288 28.4405174,21.9522859 28.5124067,22.3516258 C28.5787661,22.7509657 28.6174757,23.1503057 28.6174757,23.5553504 L28.6174757,28.8779811 L28.6119458,28.8779811 Z" id="Path"></path>
                            <path d="M35.48014,29.0434219 C34.8331362,29.0434219 34.2580217,28.8893908 33.7603264,28.5870334 C33.2626312,28.2846761 32.8755349,27.8853361 32.5990376,27.3833088 L32.5990376,32.3750578 L30.4810679,32.3750578 L30.4810679,20.3549262 L32.34466,20.3549262 L32.34466,21.8324839 C32.6653969,21.3361615 33.0690831,20.9425264 33.5557184,20.6572836 C34.0423537,20.3720408 34.6008784,20.2237145 35.2257624,20.2237145 C35.789817,20.2237145 36.3041021,20.3378117 36.7796775,20.5660059 C37.249723,20.7942001 37.664469,21.1079672 38.0239156,21.5187168 C38.3778322,21.9237616 38.6543295,22.3915598 38.8423477,22.9221114 C39.0358959,23.452663 39.129905,24.0174438 39.129905,24.6107488 C39.129905,25.4322481 38.9750665,26.1795842 38.6598595,26.8527572 C38.3446525,27.5259302 37.9188466,28.0564818 37.3713818,28.4501169 C36.8183871,28.8494568 36.1879732,29.0434219 35.48014,29.0434219 Z M34.7612468,27.1722291 C35.0819838,27.1722291 35.375071,27.1037709 35.6460384,26.9611495 C35.9170058,26.8242329 36.1492635,26.6359727 36.3372817,26.3963687 C36.5308299,26.1624696 36.6746085,25.8829317 36.7852074,25.5634598 C36.8902764,25.2496927 36.9455759,24.9245159 36.9455759,24.5879294 C36.9455759,24.245638 36.8902764,23.9204612 36.7796775,23.612399 C36.6690786,23.3043368 36.5087101,23.0419134 36.2930422,22.8137192 C36.0829042,22.5855249 35.8340566,22.4086744 35.5520293,22.2831675 C35.270002,22.1519559 34.9603249,22.0892024 34.6174682,22.0892024 C34.4239201,22.0892024 34.224842,22.1234316 34.0202339,22.1918899 C33.8156259,22.2603481 33.6165478,22.3573307 33.4229997,22.4885424 C33.2294515,22.6140492 33.0690831,22.7623755 32.9308344,22.9278163 C32.7925857,23.0932571 32.6819868,23.2815173 32.5990376,23.4983019 L32.5990376,25.4950015 C32.7372862,25.8030637 32.9142445,26.0883065 33.1299125,26.345025 C33.3455804,26.6017435 33.599958,26.8014135 33.8875152,26.9440349 C34.1695425,27.098066 34.4626297,27.1722291 34.7612468,27.1722291 Z" id="Shape"></path>
                            <path d="M40.0036366,26.3678444 C40.0036366,25.8144734 40.1529452,25.3352655 40.4570923,24.9245159 C40.7612393,24.5137662 41.1815153,24.1885895 41.7179202,23.9603952 C42.254325,23.732201 42.879209,23.612399 43.5870423,23.612399 C43.9354289,23.612399 44.2948755,23.6409233 44.654322,23.692267 C45.0137686,23.7493155 45.3289756,23.8348884 45.594413,23.9546904 L45.594413,23.4811873 C45.594413,22.9563406 45.4395745,22.5455909 45.1298975,22.2546433 C44.8202204,21.9636956 44.3612348,21.8210742 43.7418808,21.8210742 C43.2718353,21.8210742 42.8349695,21.9009422 42.4202234,22.066383 C42.0054774,22.2318238 41.5686116,22.4657229 41.1151559,22.7737852 L40.4460324,21.3418663 C40.9879672,20.959641 41.5464918,20.6743982 42.1271362,20.4975476 C42.7077807,20.3149922 43.3160748,20.2237145 43.9520188,20.2237145 C45.1409574,20.2237145 46.0644585,20.5260719 46.7335821,21.1250818 C47.3971757,21.7240917 47.7289726,22.5912298 47.7289726,23.7264961 L47.7289726,26.4305979 C47.7289726,26.6587921 47.7676822,26.8185281 47.8506314,26.9155106 C47.9280506,27.0124932 48.0607694,27.0752466 48.2432576,27.0923612 L48.2432576,28.8836859 C48.0497095,28.9179151 47.8782811,28.9464394 47.7234426,28.9635539 C47.5686041,28.9806685 47.4414153,28.9920782 47.3308164,28.9806685 C46.9050105,28.9806685 46.5842735,28.8836859 46.3686056,28.6954257 C46.1529377,28.5014606 46.0202189,28.2675615 45.9759794,27.9823187 L45.9262098,27.5373399 C45.5557034,28.0222527 45.0967178,28.3930683 44.554783,28.6554917 C44.0128482,28.9179151 43.4598535,29.0491268 42.8957989,29.0491268 C42.3428042,29.0491268 41.8451089,28.9293248 41.4082431,28.6897208 C40.9713773,28.4501169 40.6229907,28.130645 40.374143,27.7256002 C40.1252954,27.3148505 40.0036366,26.8641669 40.0036366,26.3678444 Z M45.1907269,26.7785941 C45.3068558,26.6702018 45.4008649,26.5503998 45.4782841,26.4077784 C45.5501734,26.2708619 45.5888831,26.1510599 45.5888831,26.0540774 L45.5888831,25.2040538 C45.3345055,25.0956616 45.0580082,25.0157936 44.759391,24.9530402 C44.4607739,24.8902867 44.1787466,24.8674673 43.9133091,24.8674673 C43.3603144,24.8674673 42.9068588,24.9872693 42.5529422,25.2268732 C42.1990256,25.4664772 42.0220673,25.7859491 42.0220673,26.1795842 C42.0220673,26.3906639 42.0828967,26.5960387 42.1990256,26.7957086 C42.3151544,26.9953786 42.4810529,27.1494097 42.7022507,27.2692117 C42.9179187,27.3890137 43.1888861,27.4460622 43.504093,27.4460622 C43.82483,27.4460622 44.134507,27.3833088 44.444184,27.2520971 C44.7538611,27.1322952 45.0027087,26.9725592 45.1907269,26.7785941 Z" id="Shape"></path>
                            <path d="M53.6017763,29.0434219 C52.9105329,29.0434219 52.2967088,28.9293248 51.7603039,28.6954257 C51.2238991,28.4615266 50.7649135,28.1363498 50.3833471,27.7198953 C50.0017808,27.3034408 49.7086936,26.8299378 49.5096155,26.2993862 C49.3105374,25.7688346 49.2054684,25.2097587 49.2054684,24.6278634 C49.2054684,23.8348884 49.3824267,23.1046668 49.7308134,22.4371987 C50.0792,21.7640257 50.5879552,21.2277692 51.2460188,20.8284293 C51.9040825,20.4290893 52.6838051,20.2294194 53.5851864,20.2294194 C54.4865678,20.2294194 55.2607604,20.4347942 55.9077642,20.839839 C56.554768,21.2448838 57.0303434,21.7754354 57.3400204,22.4314938 L55.2718203,23.0875522 C55.089332,22.7680803 54.8515443,22.5284764 54.5529272,22.3573307 C54.25431,22.186185 53.9225132,22.1006122 53.5520067,22.1006122 C53.1593805,22.1006122 52.799934,22.2032996 52.4681371,22.4143792 C52.1363403,22.6254589 51.8764328,22.9164066 51.6773547,23.2929271 C51.4782766,23.6694476 51.3842675,24.1144263 51.3842675,24.6335682 C51.3842675,25.1298907 51.4838066,25.5691646 51.6773547,25.9570948 C51.8764328,26.345025 52.1363403,26.6473824 52.4681371,26.8584621 C52.799934,27.0695417 53.1649105,27.177934 53.5685966,27.177934 C53.834034,27.177934 54.0773517,27.1322952 54.2985496,27.0467223 C54.5197475,26.9611495 54.7243555,26.8356426 54.9123737,26.6759067 C55.1003919,26.5161707 55.2331106,26.345025 55.3160598,26.1567648 L57.38426,26.8128232 C57.1907119,27.2406874 56.9142145,27.6229128 56.549238,27.9652041 C56.1842615,28.3074955 55.7529257,28.5699189 55.2607604,28.763884 C54.7685951,28.9578491 54.2156004,29.0434219 53.6017763,29.0434219 Z" id="Path"></path>
                            <path d="M63.6994595,28.4558217 C63.5059113,28.5413946 63.2902434,28.6326723 63.0358659,28.7296548 C62.7870182,28.8209325 62.5160508,28.9008005 62.2229636,28.9578491 C61.9298765,29.0148976 61.6367893,29.0491268 61.3381721,29.0491268 C60.934486,29.0491268 60.5695095,28.9806685 60.2377127,28.8380471 C59.9059158,28.6954257 59.6460083,28.4729363 59.4469302,28.1648741 C59.2478522,27.8568119 59.1538431,27.4517671 59.1538431,26.9554446 L59.1538431,22.0378587 L58.0699734,22.0378587 L58.0699734,20.3549262 L59.1538431,20.3549262 L59.1538431,17.5595468 L61.3049924,17.5595468 L61.3049924,20.3549262 L63.0579856,20.3549262 L63.0579856,22.0321539 L61.3049924,22.0321539 L61.3049924,26.2024036 C61.3160523,26.4933513 61.3934716,26.7101358 61.5427802,26.8413475 C61.6920887,26.978264 61.8801069,27.0410175 62.1178946,27.0410175 C62.3280326,27.0410175 62.5437006,27.0010835 62.7538386,26.9155106 C62.9639765,26.8356426 63.1409348,26.7614795 63.2791835,26.6930212 L63.6994595,28.4558217 Z" id="Path"></path>
                        </g>
                        <polygon id="Path" fill="#7B91B0" points="124.103071 27.2577794 127.454218 31.3139321 130.827486 27.2577794 133.703059 27.2577794 128.991544 32.8143092 133.55375 38.211103 130.678178 38.211103 127.459748 34.3089815 124.257909 38.211103 121.365747 38.211103 125.927953 32.8143092 121.216438 27.2577794 124.103071 27.2577794"></polygon>
                        <g id="Group">
                            <path d="M27.8156334,2.7554229 C32.5160884,4.40983114 36.2211528,5.71053831 35.9612453,5.09441386 C35.8395865,4.91756333 35.6902779,4.76353221 35.5188496,4.63802538 L35.3916608,4.5581574 L35.5299095,4.66084481 C35.0322142,4.27861945 34.6008784,3.97055723 34.2027222,3.70813385 C33.804566,3.44571048 33.2018018,3.05778027 32.5658579,2.7040792 L32.3999595,2.6128015 L32.2727707,2.54434323 L32.1068723,2.45877039 L31.9630937,2.38460726 L31.9630937,2.38460726 L31.9354439,2.38460726 C30.7686251,1.81982652 29.5741566,1.32350404 28.3465083,0.912754412 C27.3289981,0.581872764 26.2838381,0.353678524 25.2220883,0.222466835 C24.0773892,0.0456162994 22.9161004,-0.00572740464 21.7548115,0.0227968754 C20.7926007,0.0798454354 19.5428327,0.171123131 18.5806219,0.296629964 C19.5870723,0.211057123 21.3345355,0.479185356 27.8156334,2.7554229 Z" id="Path" fill="#7B91B0"></path>
                            <path d="M1.26635786,30.1102074 L1.76958304,31.3766855 C1.44884611,30.0759783 3.92626237,30.4639085 10.4515998,32.5861149 C35.3916608,40.7611736 35.3916608,40.7611736 36.4976502,40.1450491 C36.9511059,39.7228898 37.3769118,39.2665013 37.769538,38.7758837 C39.1520248,36.9503298 39.3013333,37.1100658 40.0534061,36.0375528 C41.3474137,34.0123289 41.3418838,34.0465581 41.8782886,32.9284063 L42.4036336,31.79314 C41.3971832,33.0881423 39.8156184,32.5575907 12.9566658,23.7435881 C4.11981051,20.9139796 0.282027297,20.1552337 0.033179682,21.4958749 L0,23.195922 C0.044239576,24.3711223 0.176958304,25.5406178 0.398156184,26.6929987 C0.591704329,27.8567893 0.88479152,28.9977605 1.26635786,30.1102074 Z" id="Path" fill="url(#linearGradient-2)"></path>
                            <path d="M17.4580427,14.3705097 C40.9879672,22.203277 44.0017883,23.2130365 44.239576,21.7925274 C44.1842765,21.1421738 44.140037,20.263626 44.0404979,19.6132724 C43.8745995,18.4551866 43.6036321,17.3085106 43.2331256,16.2017685 C42.9068588,15.0836167 42.4976427,13.9882844 42.0054774,12.9385909 L41.6626207,12.2254839 C42.1934956,13.7201561 37.3382021,12.0258139 22.7280822,7.01695034 C17.010117,5.08870901 11.059894,3.15476282 9.61104789,3.99908151 L9.0359334,4.42124085 C8.1069023,5.11723329 7.22764073,5.8930937 6.42026847,6.73741239 C5.59630636,7.59314079 4.83870362,8.51732746 4.15852014,9.4985627 C3.77142385,10.1032774 3.24054894,10.913367 2.88663233,11.5409011 C4.00368163,13.685927 5.84515398,10.5539611 17.4580427,14.3705097 Z" id="Path" fill="url(#radialGradient-4)"></path>
                            <path d="M12.2654224,43.1857374 C15.0746355,44.3038892 16.2138046,44.8857845 18.3373043,45.2737147 L19.0617273,45.3935167 C20.2008964,45.5646623 21.3511254,45.6388255 22.5013543,45.6103012 C23.6405234,45.5988915 24.7796925,45.4847944 25.8967418,45.2794195 C26.5160959,45.142503 27.334528,44.942833 27.9483521,44.7716874 C27.4008874,44.8572602 26.7594135,44.8857845 23.889371,44.0300561 C19.2773952,42.6608906 14.7870783,40.903795 10.1751025,39.4661713 C9.00275372,39.1124702 6.24331016,38.2225127 6.77418507,39.1581091 C6.90137386,39.3463693 7.05068242,39.517515 7.21658083,39.6658412 C7.50413808,39.9282646 7.85252474,40.2249171 8.20644135,40.5158648 C8.56035796,40.8068124 8.89768472,41.0863504 9.20183181,41.3202495 C9.6718773,41.6739506 10.0866233,41.9477836 10.4571298,42.1816827 C10.8276362,42.4212867 11.1981427,42.6380712 11.6681882,42.9004946 L11.8340866,42.9917723 L11.9668053,43.0602306 L12.2654224,43.1857374 Z" id="Path" fill="url(#linearGradient-6)"></path>
                            <path d="M27.964942,44.8002116 C27.3511179,44.9485379 26.5271558,45.1881419 25.9078017,45.3079438 C24.7852225,45.5019089 23.6460534,45.5988915 22.5124142,45.6045963 C21.3621853,45.695874 20.2008964,45.6217109 19.0727872,45.3878118 L18.3483641,45.2680098 C18.5363823,45.3307633 18.7409904,45.3307633 18.9290086,45.2680098 C19.0285476,44.6918194 17.3916833,43.5451433 12.5308599,40.1279346 C5.67925557,35.2959215 2.30045795,32.7515558 1.62580442,31.353866 L1.18340866,30.0816832 C0.807372262,28.9806459 0.530874912,27.8453796 0.337326767,26.6929987 C0.132718728,25.5406178 0.022119788,24.3654174 0,23.195922 L0.033179682,21.4958749 C2.56589541,25.64901 6.18248075,27.9765913 18.9566583,36.8077084 C24.210108,40.5044551 29.6405159,44.3381183 27.964942,44.8002116 Z" id="Path" fill="url(#radialGradient-8)"></path>
                            <path d="M42.469993,31.8330739 L41.9722977,32.939816 C41.4414228,34.0522629 40.8220688,35.1247759 40.1197655,36.1345354 C39.439582,37.1100658 38.6819793,38.0228427 37.8524872,38.8728663 C37.4488011,39.2607965 36.9289861,39.7856432 36.5252999,40.1564589 C37.2994925,38.9128002 31.8469648,34.9022865 24.6580337,29.7964404 C11.3585111,20.343494 2.01290071,13.5090765 2.88663233,11.5409011 C3.25713878,10.9190718 3.6829447,10.0291143 4.09216078,9.43010442 C4.799994,8.42034491 5.59077642,7.47333882 6.4589781,6.60049585 C7.24423057,5.78470144 8.1069023,5.05447987 9.0359334,4.415536 L9.61104789,3.99337665 C8.8479152,5.96155197 16.3686431,11.4039846 29.9225432,20.9824378 C36.2764523,25.4379304 42.9787481,30.3384017 42.469993,31.8330739 Z" id="Path" fill="url(#radialGradient-10)"></path>
                            <path d="M28.6727752,1.02114668 C27.8156334,0.713084452 27.5667858,0.764428156 27.3455879,0.84429614 C27.3455879,1.39196232 28.9271528,2.66985006 34.1474227,6.25820449 C39.0137761,9.62977438 41.2257549,11.3583458 41.6681506,12.2254839 C41.6681506,12.2254839 43.9796685,16.6809764 44.2008664,21.6955448 C43.3492545,20.0297269 41.3584736,18.7004954 41.3584736,18.7004954 L33.3179307,12.7674452 C23.6405234,6.02430539 16.4018228,0.827181572 18.5806219,0.30233482 C18.5806219,0.30233482 23.7345325,-0.730244117 28.6727752,1.02114668 Z" id="Path" fill="url(#radialGradient-12)"></path>
                        </g>
                    </g>
                </g>
            </g>
        </g>
    </g>
</svg>