<svg data-v-423bf9ae="" xmlns="http://www.w3.org/2000/svg" viewBox="0 0 350.199433863409 163" class="iconAbove"><!----><!----><!----><g data-v-423bf9ae="" id="363b1ee2-9181-4642-b262-e07e30ffa666" fill="white" transform="matrix(5.6980058425006375,0,0,5.6980058425006375,-6.438748392920189,83.68376078827113)"><path d="M1.13 4.05L1.13 13.73L2.56 13.73L2.56 7.35L5.46 13.73L6.09 13.73L8.99 7.39L8.99 13.73L10.42 13.73L10.42 4.05L9.00 4.05L5.81 11.23L2.62 4.05ZM12.42 6.33L12.42 11.21C12.42 13.08 13.45 13.92 14.95 13.92C15.95 13.92 16.73 13.54 17.29 12.81L17.29 13.73L18.55 13.73L18.55 6.33L17.22 6.33L17.22 11.34C16.80 12.33 16.16 12.66 15.37 12.66C14.43 12.66 13.75 12.17 13.75 10.99L13.75 6.33ZM20.68 6.33L20.68 13.73L22.01 13.73L22.01 8.71C22.41 7.73 23.07 7.41 23.86 7.41C24.84 7.41 25.48 7.90 25.48 9.18L25.48 13.73L26.81 13.73L26.81 9.04C26.81 6.97 25.77 6.15 24.28 6.15C23.27 6.15 22.48 6.52 21.94 7.24L21.94 6.33ZM29.65 7.99C30.20 7.62 30.83 7.41 31.61 7.41C32.68 7.41 33.33 7.80 33.33 9.11L33.33 9.37C32.75 9.11 32.05 8.97 31.39 8.97C29.75 8.97 28.56 9.83 28.56 11.45C28.56 13.08 29.74 13.83 31.22 13.83C32.03 13.83 32.79 13.61 33.40 13.20L33.40 13.73L34.64 13.73L34.64 9.03C34.64 6.85 33.45 6.15 31.77 6.15C30.53 6.15 29.67 6.52 29.12 6.93ZM31.51 12.73C30.58 12.73 29.82 12.33 29.82 11.38C29.82 10.39 30.65 9.95 31.71 9.95C32.23 9.95 32.83 10.05 33.33 10.23L33.33 12.29C32.79 12.57 32.10 12.73 31.51 12.73ZM36.78 4.05L36.78 13.73L40.98 13.73C43.02 13.73 44.16 12.74 44.16 11.02C44.16 9.79 43.55 9.06 42.63 8.69C43.41 8.33 43.83 7.63 43.83 6.62C43.83 4.93 42.67 4.05 40.98 4.05ZM38.18 9.38L40.81 9.38C42.08 9.38 42.81 9.87 42.81 10.93C42.81 11.91 42.20 12.45 40.96 12.45L38.18 12.45ZM38.18 5.35L41.02 5.35C41.87 5.35 42.49 5.81 42.49 6.75C42.49 7.71 41.83 8.20 41.02 8.20L38.18 8.20ZM45.71 6.33L45.71 13.73L47.04 13.73L47.04 6.33ZM46.37 3.50C45.92 3.50 45.61 3.82 45.61 4.30C45.61 4.76 45.92 5.10 46.37 5.10C46.82 5.10 47.14 4.76 47.14 4.30C47.14 3.82 46.82 3.50 46.37 3.50ZM53.89 3.84L53.89 7.18C53.40 6.58 52.68 6.15 51.72 6.15C49.67 6.15 48.92 8.12 48.92 10.04C48.92 11.96 49.67 13.92 51.72 13.92C52.74 13.92 53.48 13.43 53.97 12.78L53.97 13.73L55.22 13.73L55.22 3.39ZM52.05 12.68C50.64 12.68 50.18 11.42 50.18 10.04C50.18 8.65 50.64 7.36 52.04 7.36C52.92 7.36 53.49 7.88 53.89 8.57L53.89 11.49C53.49 12.21 52.92 12.68 52.05 12.68ZM62.43 7.13C61.92 6.64 60.98 6.15 59.72 6.15C58.14 6.15 56.97 6.92 56.97 8.27C56.97 9.09 57.39 9.60 58.02 9.91C58.65 10.22 59.68 10.40 60.48 10.72C61.04 10.95 61.28 11.19 61.28 11.59C61.28 12.31 60.58 12.68 59.63 12.68C58.62 12.68 57.71 12.25 57.18 11.75L56.66 12.87C57.20 13.41 58.28 13.92 59.64 13.92C61.11 13.92 62.59 13.33 62.59 11.59C62.59 10.74 62.23 10.25 61.47 9.87C60.65 9.46 59.57 9.30 58.91 9.02C58.52 8.85 58.28 8.62 58.28 8.25C58.28 7.74 58.73 7.34 59.67 7.34C60.62 7.34 61.45 7.76 61.94 8.27Z"></path></g><!----><g data-v-423bf9ae="" id="2946466a-205b-4bc9-8346-76860a61c027" transform="matrix(2.994410458179972,0,0,2.994410458179972,128.08943266912044,-1.9385669710569857)" stroke="none" fill="white"><path d="M17.572 23.933l4.106 7.095L32 13.189h-8.981V7.582L11.51.972 0 7.582v13.222l11.51 6.611 6.062-3.482zm10.96-8.744l-6.855 11.846-6.855-11.846h13.71z"></path></g><!----></svg>