<?xml version="1.0" encoding="UTF-8"?>
<svg width="132px" height="39px" viewBox="0 0 132 39" version="1.1" xmlns="http://www.w3.org/2000/svg" xmlns:xlink="http://www.w3.org/1999/xlink">
    <title>Client/Logo/Hilco/Grey</title>
    <g id="Mockups" stroke="none" stroke-width="1" fill="none" fill-rule="evenodd">
        <g id="Home-Page" transform="translate(-100.000000, -817.000000)" fill="#7B91B0" fill-rule="nonzero">
            <g id="Logos" transform="translate(100.000000, 807.000000)">
                <g id="Client/Logo/Hilco/Grey" transform="translate(0.227194, 10.228070)">
                    <g id="Group" transform="translate(0.000000, 0.000000)">
                        <polygon id="Path" points="73.1294731 4.12423249 73.1294731 33.2688088 67.5860786 33.2688088 67.5860786 20.7782761 53.7905856 20.7782761 53.7905856 33.2688088 48.2051957 33.2688088 48.2051957 4.12423249 53.7905856 4.12423249 53.7905856 15.9902386 67.5860786 15.9902386 67.5860786 4.12423249"></polygon>
                        <path d="M81.0723746,4.12423249 L81.0723746,8.29369977 L75.8684046,8.29369977 L75.8684046,4.12423249 L81.0723746,4.12423249 Z M81.0723746,12.8592664 L81.0723746,33.2688088 L75.8684046,33.2688088 L75.8684046,12.8592664 L81.0723746,12.8592664 Z" id="Shape"></path>
                        <polygon id="Path" points="89.8369557 4.12423249 89.8369557 33.2688088 84.6329857 33.2688088 84.6329857 4.12423249"></polygon>
                        <path d="M105.426782,25.9265856 L110.378942,25.9265856 L110.378942,26.6534976 L110.082659,29.8177026 C109.46893,32.7253504 106.506099,34.0936553 101.194167,34.0936553 C97.2789977,34.0936553 94.6759393,33.3881231 93.4061546,31.9556789 C92.13637,30.5232348 91.4803146,27.6797262 91.4803146,23.4037735 C91.4803146,19.1278208 92.1152069,16.3698314 93.4061546,14.8518682 C94.6971023,13.3339049 97.1943454,12.7138918 100.897884,12.7138918 C103.429417,12.444971 105.979841,12.9992263 108.177982,14.2959943 C109.66677,15.9215347 110.371256,18.1270205 110.103822,20.3250876 L105.172826,20.3250876 C105.172826,17.8877946 103.761954,16.6691481 100.94021,16.6691481 C98.9720439,16.6691481 97.7234224,17.0539838 97.2155085,17.8236553 C96.5338772,19.6353912 96.2732206,21.5810737 96.4536377,23.5106724 C96.2472702,25.3926223 96.5394041,27.2961784 97.3001608,29.0266513 C97.8504008,29.7749431 99.2048378,30.1597788 101.384635,30.1597788 C102.53417,30.3114748 103.69923,30.0381095 104.664912,29.3901073 C105.285097,28.3500817 105.55258,27.1340825 105.426782,25.9265856 Z" id="Path"></path>
                        <path d="M121.672451,12.6476463 C125.690339,12.6476463 128.331071,13.2910266 129.594648,14.5777871 C130.829829,15.8859937 131.468716,18.6096368 131.468716,22.7916086 C131.468716,27.4453925 130.851125,30.4907258 129.63724,31.9490544 C128.423355,33.407383 125.846511,34.0936553 121.906709,34.0936553 C117.647463,34.0936553 114.878954,33.428829 113.622476,32.0777304 C112.365999,30.7266319 111.748408,27.7885286 111.748408,23.1776367 C111.748408,18.5667448 112.365999,15.9074397 113.60118,14.5992331 C114.836361,13.2910266 117.413205,12.6476463 121.672451,12.6476463 Z M121.672451,16.615158 C119.542828,16.615158 118.265054,17.0011861 117.690056,17.7517964 C116.950759,19.4044578 116.656946,21.2241163 116.838207,23.0275147 C116.64682,25.0441009 116.923873,27.0778759 117.647463,28.9680591 C118.201165,29.7615615 119.542828,30.1475896 121.693747,30.1475896 C123.844666,30.1475896 125.079847,29.7186694 125.633549,28.9037211 C126.349491,26.9816887 126.626095,24.9218845 126.442806,22.8773926 C126.630266,21.1155855 126.33569,19.335699 125.590957,17.7303504 C124.973366,17.0655242 123.653,16.615158 121.672451,16.615158 Z" id="Shape"></path>
                        <path d="M27.5489263,3.66010495 C20.8101897,14.05343 17.4499803,26.6128055 18.1891933,39.0427343 L18.1628868,38.5442314 C18.1068116,38.5436308 18.0506982,38.5427615 17.9945479,38.5416225 C16.445714,38.5102044 14.9324769,38.2748656 13.4828415,37.8560937 C15.058147,20.2823356 23.417571,8.2302422 27.5489263,3.66010495 Z M35.1617255,26.9902611 C32.9736532,32.2494038 28.7234614,36.1078842 23.6722859,37.7171156 C21.7342215,26.0457541 23.4217672,13.8203766 28.312727,3.07660906 C35.7412812,8.11502986 38.8167591,18.2052026 35.1617255,26.9902611 Z M27.1392549,3.33761511 C17.7657255,11.1476137 10.5733958,23.2026746 8.00308251,35.188593 C6.88584277,34.3881581 5.85299741,33.4575167 4.92583256,32.4130315 C10.718089,16.0473909 22.1676722,6.32034595 27.1392549,3.33761511 Z M25.6970352,1.61352371 C26.3909629,1.93209305 27.056697,2.29031321 27.692882,2.68454936 C16.9713341,6.91410625 7.04637511,16.1296198 1.28589784,26.360318 C1.2793102,26.3415134 1.27203365,26.3220958 1.26478503,26.3026608 C-1.44219788,19.0446955 0.279860737,10.7886155 5.62795204,5.38429299 C10.9760433,-0.0200295106 18.8969269,-1.50828007 25.6970352,1.61352371 Z" id="Combined-Shape"></path>
                    </g>
                </g>
            </g>
        </g>
    </g>
</svg>