<svg xmlns="http://www.w3.org/2000/svg" width="579" height="328" viewBox="0 0 579 328"><path fill="#7B91B0" d="M99.3055776,30.6523839 L142.12,122.212 L142.213823,122.079954 L172.579659,78.8416445 L189.785,54.169 L189.742957,53.7568239 L202.615431,35.2732719 C210.945033,23.6937247 224.328145,16.8179979 238.592344,16.7897199 C238.651233,16.7897199 238.710151,16.7898416 238.769097,16.7900853 L238.922408,16.7897199 C259.716404,16.7897199 284.141098,31.9726376 287.441732,67.2894245 L287.771795,69.9299319 L287.513,70.298 L296.023381,153.435979 L296.037,153.574 L326.413,110.238 L326.389216,110.19767 L336.291119,95.6748793 C344.150717,84.628682 356.736193,77.9082821 370.287653,77.5213907 C370.805159,77.5110406 371.318122,77.5068571 371.826704,77.5091252 C387.705661,77.4928949 399.311591,83.6600294 411.545581,104.586592 C411.545581,104.599794 411.561424,104.639402 411.591885,104.703345 L411.671934,104.863063 C412.083824,105.65896 413.454897,108.050231 415.075265,110.837414 C415.486547,111.53556 415.910883,112.259568 416.337969,112.99091 L417.137279,114.362599 C417.26395,114.58043 417.390287,114.797898 417.516016,115.01452 C419.747698,118.818691 421.817869,122.305467 422.107611,122.74008 L422.009728,122.883249 C422.052429,122.962797 422.085299,123.02552 422.107611,123.070144 C422.404297,123.36683 425.03447,127.797122 427.840685,132.58549 L428.262668,133.305959 L428.434027,133.598756 L428.776816,134.184847 C428.948128,134.47787 429.119207,134.770671 429.289569,135.062402 L429.629194,135.644186 C432.449045,140.476317 434.980085,144.85433 434.980085,144.85433 C435.014313,144.912804 435.048528,144.971257 435.082729,145.029688 L518.816195,18.440037 C523.696983,11.32246 531.217264,6.44789308 539.707358,4.89860585 C548.197452,3.34931863 556.954736,5.25352694 564.034885,10.1884513 C571.166186,15.0681251 576.027573,22.6181661 577.518616,31.1295386 C579.00966,39.6409111 577.004276,48.39389 571.956407,55.407141 L468.316491,202.285367 L468.213,202.431 L468.316491,202.61543 L448.182622,231.330948 C438.940846,244.533486 418.806977,249.8145 405.604439,240.572724 C403.099088,238.828735 400.873263,236.714202 399.003171,234.301519 L388.111078,216.148031 L374.248414,192.0534 L373.888,191.437 L291.732556,309.225918 C283.751623,320.42497 271.001438,326.804568 258.083073,327.268286 L257.089099,327.292269 L256.094927,327.292806 C236.543971,327.072051 217.148124,313.183378 213.837587,281.830653 C213.524313,281.517378 204.885518,197.948904 204.007503,189.448285 L185.782196,215.487904 L185.452132,215.817967 L166.638517,242.553105 C158.469447,253.989803 143.416079,260.814689 127.674282,261.223143 L126.623877,261.240848 C107.700675,261.387713 87.984402,252.237166 78.1815181,230.670822 L73.5606301,220.438855 L4.57737356,73.2305662 C-7.18026609,47.0720951 4.49391403,16.3350142 30.6523849,4.57737401 C56.8108557,-7.1802662 87.5479368,4.49391328 99.3055776,30.6523839 Z M191.723338,154.42617 C186.749389,154.379534 181.970329,156.357612 178.484325,159.905867 C174.99832,163.454122 173.10513,168.267441 173.239786,173.239785 C173.347004,183.585521 181.707665,191.946182 192.053401,192.0534 C197.453042,192.346235 202.762244,190.576501 206.906255,187.102449 C206.576192,186.772386 202.285367,180.50118 202.285367,180.50118 C199.573609,182.938354 196.027925,184.238438 192.383464,184.131878 C187.386892,184.129513 183.032725,180.72782 181.821435,175.880292 L209.546763,175.880292 L209.546763,172.909722 C209.707454,168.074503 207.902956,163.38035 204.544806,159.897824 C201.186656,156.415298 196.561202,154.441352 191.723338,154.42617 Z M303.284776,154.096106 C298.294847,154.182881 293.543854,156.248738 290.077352,159.839043 C286.61085,163.429349 284.712914,168.249882 284.801224,173.239785 C284.809423,178.196861 286.804883,182.943667 290.340951,186.417698 C293.877018,189.891729 298.658396,191.802869 303.61484,191.723337 C309.007375,191.964314 314.298252,190.200688 318.467694,186.772386 C318.467694,186.442322 313.846806,180.171117 313.846806,180.171117 C311.135048,182.60829 307.589363,183.908375 303.944903,183.801815 C298.906423,183.923548 294.483892,180.468446 293.382874,175.550229 L321.108202,175.550229 L321.108202,172.579658 C321.268893,167.74444 319.464395,163.050287 316.106245,159.567761 C312.748094,156.085235 308.122641,154.111289 303.284776,154.096106 Z M231.330949,154.42617 C230.220912,154.387598 229.110733,154.498616 228.030315,154.756233 L213.17746,176.210356 C214.762094,185.179093 222.553363,191.718193 231.661012,191.723337 C235.480146,191.678255 239.183378,190.405268 242.223042,188.092639 L242.223042,190.733147 L250.804691,190.733147 L250.804691,155.086296 L241.892979,155.086296 L241.892979,157.726804 C238.824366,155.508375 235.116708,154.349732 231.330949,154.42617 Z M403.624059,154.42617 C402.514022,154.387598 401.403843,154.498616 400.323425,154.756233 L385.140507,176.210356 C386.725141,185.179093 394.516409,191.718193 403.624059,191.723337 C407.443192,191.678255 411.146425,190.405268 414.186089,188.092639 L414.186089,190.733147 L422.767738,190.733147 L422.767738,155.086296 L414.186089,155.086296 L414.186089,157.726804 C411.117476,155.508375 407.409818,154.349732 403.624059,154.42617 Z M267.637926,153.766043 C260.046467,153.766043 255.095516,158.056867 255.095516,164.988199 C255.151658,169.354967 258.127405,173.14228 262.356911,174.229975 C264.337292,174.890102 268.628116,176.210356 270.608497,176.870483 C272.588878,177.53061 273.909131,178.5208 273.909131,180.171117 C273.909131,181.161307 273.249004,183.471751 268.628116,183.471751 C265.079053,183.598125 261.628729,182.289382 259.056277,179.841054 L254.435389,186.442322 C258.248513,189.812491 263.212679,191.585407 268.298053,191.393274 C276.879702,191.393274 282.160717,187.102449 282.160717,180.171117 C282.160717,174.560039 278.530019,171.919531 274.239195,170.269214 C272.918941,169.939151 267.96799,168.288834 266.317672,167.628707 C264.667355,166.96858 263.347102,166.308453 263.347102,164.658136 C263.347102,163.667946 264.007228,162.017628 267.637926,162.017628 C271.055827,162.015091 274.393844,163.051027 277.209766,164.988199 L281.50059,158.386931 C277.5013,155.387463 272.637039,153.766043 267.637926,153.766043 Z M377.549048,140.563506 L368.967399,140.563506 L368.967399,178.5208 C368.967399,184.131878 372.268033,191.06321 383.160126,191.06321 L383.160126,182.481561 C381.712837,182.821434 380.19058,182.438955 379.075826,181.455348 C377.961071,180.471741 377.392027,179.008955 377.549048,177.53061 L377.549048,140.563506 Z M450.163002,154.756233 C445.855562,153.983387 441.421875,155.061852 437.950655,157.726804 L437.950655,155.086296 L429.369006,155.086296 L429.369006,190.733147 L437.950655,190.733147 L437.950655,171.589468 C437.746412,168.58575 439.255471,165.724113 441.849511,164.196046 C444.443552,162.667979 447.678005,162.735363 450.206153,164.370143 C452.7343,166.004922 454.122867,168.926927 453.7937,171.919531 L453.7937,190.733147 L462.375349,190.733147 L462.375349,173.239785 C462.630151,169.991312 462.179783,166.726144 461.055095,163.667946 C459.223607,159.003602 455.097653,155.627822 450.163002,154.756233 Z M344.542705,137.592935 L325.72909,137.592935 L325.72909,190.403083 L334.970866,190.403083 L334.970866,175.550229 L344.542705,175.550229 C349.741105,175.757703 354.798088,173.829487 358.538653,170.213608 C362.279217,166.597729 364.377699,161.608995 364.346854,156.40655 C364.234368,151.27917 362.080049,146.408695 358.361812,142.87637 C354.643574,139.344045 349.669095,137.442161 344.542705,137.592935 Z M149.475219,137.592935 L140.233443,137.592935 L140.233443,190.403083 L171.589468,190.403083 L171.589468,181.491371 L149.475219,181.491371 L149.475219,137.592935 Z M403.624059,162.347692 C409.457307,162.347692 414.186089,167.076474 414.186089,172.909722 C414.221915,175.721776 413.120642,178.429136 411.132057,180.41772 C409.143473,182.406304 406.436113,183.507578 403.624059,183.471751 C397.790811,183.471751 393.062029,178.74297 393.062029,172.909722 C393.062029,167.076474 397.790811,162.347692 403.624059,162.347692 Z M231.661012,162.347692 C237.49426,162.347692 242.223042,167.076474 242.223042,172.909722 C242.223042,178.74297 237.49426,183.471751 231.661012,183.471751 C225.827765,183.471751 221.098983,178.74297 221.098983,172.909722 C221.098983,167.076474 225.827765,162.347692 231.661012,162.347692 Z M191.723338,162.017628 C195.993442,162.04299 199.745138,164.856761 200.965114,168.94896 L182.151498,168.94896 C183.542034,164.837035 187.382823,162.055774 191.723338,162.017628 Z M303.284776,162.017628 C307.554881,162.04299 311.306576,164.856761 312.526552,168.94896 L293.712937,168.94896 C295.02392,164.779069 298.914011,161.962106 303.284776,162.017628 Z M351.880165,149.729217 C353.819559,151.668611 354.867672,154.325537 354.774671,157.066677 C354.596461,162.588334 350.067236,166.971455 344.542705,166.968581 L334.970866,166.968581 L334.970866,146.834711 L344.542705,146.834711 C347.283845,146.74171 349.940771,147.789823 351.880165,149.729217 Z" transform="translate(.188 .54)"/></svg>