<?xml version="1.0" encoding="UTF-8"?>
<svg width="108px" height="23px" viewBox="0 0 108 23" version="1.1" xmlns="http://www.w3.org/2000/svg" xmlns:xlink="http://www.w3.org/1999/xlink">
    <title>Client/Logo/Lloyds/Grey</title>
    <g id="Mockups" stroke="none" stroke-width="1" fill="none" fill-rule="evenodd">
        <g id="Home-Page" transform="translate(-1229.000000, -825.000000)" fill="#7B91B0" fill-rule="nonzero">
            <g id="Logos" transform="translate(100.000000, 807.000000)">
                <g id="Group" transform="translate(1129.224066, 18.237113)">
                    <path d="M95.6289488,0.70243682 C95.7829471,2.54141642 94.284119,5.23455918 93.3349055,5.74733806 L92.6711198,5.10952543 C93.8168139,3.5599498 93.3680948,0.803587722 92.6419132,0.286594223 L92.7321881,0 C93.2300273,0.0463608301 94.4421,0.251472382 94.9638356,0.41303285 C95.3714,0.538066604 95.4152098,0.577403066 95.6289488,0.70243682" id="path2572"></path>
                    <path d="M107.551867,16.3808266 C107.551867,19.8269817 105.158256,22.3220373 101.090577,22.3220373 C99.5001469,22.3220373 97.3189472,21.9764384 96.3511476,21.4608497 C96.3511476,21.4608497 96.2635279,21.313338 96.2635279,20.7232911 C96.2635279,19.2551981 96.3856645,16.7137817 96.4122159,16.2867001 L97.3494813,16.2867001 C97.4145323,16.6898988 97.4609973,17.3782869 97.6521676,18.0722945 C98.1885064,20.0489517 99.8360225,20.7584129 101.361402,20.7584129 C103.083262,20.7584129 104.591383,19.5263387 104.591383,17.6578568 C104.591383,16.043657 103.755013,15.3412202 101.664088,13.5738891 L100.608669,12.6775797 C98.0026464,10.4691184 96.8078322,8.62030466 96.8078322,6.16458553 C96.8078322,3.14270233 99.0872722,0.762846387 102.901385,0.762846387 C104.466591,0.762846387 106.126056,1.08877707 106.732756,1.2419083 C106.957115,1.30372274 107.095183,1.34727382 107.095183,1.53271714 C107.095183,1.8811258 106.974374,3.82406605 106.974374,5.90608878 L106.130038,5.90608878 C105.841955,4.58550756 105.707871,2.33209024 102.688973,2.33209024 C100.532997,2.33209024 99.7311444,4.08677742 99.7311444,5.23315431 C99.7311444,6.14632218 99.9236422,7.09039726 102.658439,9.26092704 L103.74572,10.1207097 C106.576102,12.3727222 107.551867,13.7649519 107.551867,16.3808266" id="path2574"></path>
                    <path d="M63.7911321,12.7112967 C63.4977388,13.3153924 63.4300327,13.3617532 63.4300327,14.6261395 C63.4300327,14.6261395 63.4300327,16.5578407 63.4300327,17.0537611 C63.4300327,17.4794378 63.4154294,18.4516104 63.4884458,19.5755093 C63.5880137,21.0393876 64.4867795,21.0716997 66.1157096,21.1068216 L66.1157096,21.9989163 L57.4559615,21.9989163 L57.4559615,21.1068216 C59.3265096,21.0548412 59.9265718,20.9593098 60.0195018,19.5446021 C60.0938458,18.4235129 60.1124318,17.544062 60.1124318,17.1155756 L60.1124318,14.3353306 C60.1124318,13.4249725 59.8655036,13.1116857 59.4473186,12.3277662 C59.055685,11.5888027 56.0474083,5.60544583 55.1619182,4.21181117 C54.3985646,3.01626371 53.5316605,1.9935157 52.052746,1.97806209 L52.052746,1.14918664 L57.6073047,1.14918664 C57.6073047,1.14918664 57.7042174,1.5032148 58.4503125,3.16237056 C58.8114119,3.95893392 61.9046532,10.1670705 62.3135452,10.9833021 L67.2321971,1.14918664 L71.1870322,1.14918664 L71.1870322,1.97806209 C70.038683,2.02442292 69.4147245,2.3559731 68.4708212,3.57540341 C67.6397615,4.64451226 64.6221918,10.9987557 63.7911321,12.7112967" id="path2576"></path>
                    <path d="M5.76298734,3.0963415 C5.76298734,3.0963415 5.7324532,4.52790774 5.7324532,8.58799256 L5.7324532,14.9127337 C5.7324532,18.7283705 5.74174619,19.2622225 6.15594846,19.7033528 C6.57546102,20.1444831 7.77027525,20.279351 9.68596075,20.279351 C11.4795097,20.279351 12.0676238,20.1838196 12.6729963,19.5446021 C13.308903,18.8716676 13.4695392,18.2535232 13.7005366,17.4007649 L14.7254217,17.4007649 C14.7254217,17.4007649 14.1107561,20.557516 13.9102929,21.3330062 C13.7589497,21.9188385 13.6686749,21.9989163 13.6686749,21.9989163 L0,21.9989163 L0,21.1068216 C1.43244951,21.0885582 2.13738991,20.9705488 2.29271576,19.6710407 C2.40290419,18.7410144 2.41352476,16.699733 2.41352476,14.242609 L2.41352476,8.9434256 C2.41352476,4.88053103 2.40157662,4.53212236 2.35245648,3.67093482 C2.26616434,2.14524205 1.55325851,2.01599367 0.0584131405,1.97806209 L0.0584131405,1.14918664 L5.76298734,1.14918664 L5.76298734,3.0963415" id="path2578"></path>
                    <path d="M51.783249,11.0802384 C51.783249,17.3066384 47.9412575,22.3838517 41.5516564,22.3838517 C35.367829,22.3838517 31.6240777,17.8166075 31.6240777,11.718051 C31.6240777,6.14772705 34.8832654,0.73334404 41.794602,0.73334404 C48.1058763,0.73334404 51.783249,4.95920395 51.783249,11.0802384 Z M47.9505505,12.0383622 C47.9505505,6.07748337 45.0657379,2.33209024 41.1002822,2.33209024 C38.1597116,2.33209024 35.3372948,4.69368283 35.3372948,10.7613321 C35.3372948,15.9045745 37.7654229,20.6937887 42.184908,20.6937887 C45.867591,20.6937887 47.9505505,17.7084322 47.9505505,12.0383622" id="path2580"></path>
                    <path d="M92.2489521,11.0802384 C92.2489521,14.7525781 90.9134153,17.5412523 89.5022069,19.0627304 C88.3379268,20.3186875 85.9668844,21.9989163 81.2938331,21.9989163 C78.3121078,21.9989163 71.5481317,21.9989163 71.5481317,21.9989163 L71.5481317,21.1068216 C73.3576114,21.0407925 73.9058984,21.0056707 74.0532588,19.5755093 C74.1700851,18.4361568 74.1435337,15.3932005 74.1435337,14.0164243 L74.1435337,9.06845935 C74.1435337,5.0097794 74.1315856,4.56021984 74.083793,3.70465179 C73.9895354,2.09185685 73.0867869,2.02582779 71.7897496,1.97806209 L71.7897496,1.14918649 L79.664903,1.14918649 C82.8218678,1.14918649 87.0223036,1.14216227 89.7756866,4.18511857 C91.0368794,5.57594348 92.2489521,7.77176098 92.2489521,11.0802384 Z M88.5954757,12.0706743 C88.5954757,5.55206063 84.6977261,2.71421587 79.2440629,2.71421587 C78.7369306,2.71421587 78.0280075,2.80412779 77.8248891,2.90527869 C77.5978744,3.01766858 77.5593748,3.15394132 77.5540646,3.44896479 C77.5328234,4.36072778 77.4929963,6.5396868 77.4929963,8.65261675 L77.4929963,16.0605155 C77.4929963,18.7929947 77.6031847,19.3408954 77.9762323,19.73426 C78.3798139,20.1627465 79.1126333,20.5631355 80.8716654,20.5631355 C86.1275205,20.5631355 88.5954757,17.7576028 88.5954757,12.0706743" id="path2582"></path>
                    <path d="M21.3646061,3.0963415 C21.3646061,3.0963415 21.3353996,4.52790774 21.3353996,8.58799256 L21.3353996,14.9127337 C21.3353996,18.7283705 21.3420374,19.2622225 21.7588948,19.7033528 C22.1770798,20.1444831 23.3705665,20.279351 25.2889071,20.279351 C27.0811285,20.279351 27.6705702,20.1838196 28.2746151,19.5446021 C28.9091943,18.8716676 29.0698304,18.2535232 29.2995002,17.4007649 L30.3283681,17.4007649 C30.3270405,17.4007649 29.7123749,20.557516 29.5119117,21.3330062 C29.3592409,21.9188385 29.2702937,21.9989163 29.2702937,21.9989163 L15.6002912,21.9989163 L15.6002912,21.1068216 C17.0353959,21.0885582 17.7390087,20.9705488 17.893007,19.6710407 C18.004523,18.7410144 18.0151436,16.699733 18.0151436,14.242609 L18.0151436,8.9434256 C18.0151436,4.88053103 18.0031954,4.53212236 17.9540753,3.67093482 C17.8677831,2.14524205 17.1535497,2.01599367 15.6600319,1.97806209 L15.6600319,1.14918664 L21.3646061,1.14918664 L21.3646061,3.0963415" id="path2584"></path>
                </g>
            </g>
        </g>
    </g>
</svg>