<svg xmlns="http://www.w3.org/2000/svg" width="576" height="301" viewBox="0 0 576 301"><g fill="#7B91B0" transform="translate(0 .727)"><path d="M0,147.303637 C0.339161252,144.512574 0.729710573,141.711251 1.02776137,138.909927 C4.68659185,102.615853 19.1780272,71.3908418 45.0365032,45.5324688 C64.5639693,25.9745088 87.8222091,12.8503584 114.451506,5.51355813 C125.257628,2.69058842 136.313956,0.927552628 147.463201,0.249532193 C156.315936,-0.263378854 165.196873,0.014781945 174,1.08069418 C168.090372,0.937036555 160.43355,0.413712339 152.787005,0.608676263 C127.899962,1.17176201 103.513768,7.70381677 81.6864737,19.6535732 C54.3293039,34.2712626 32.038208,56.8058872 17.7391613,84.2995058 C3.43170808,111.816209 -1.99990518,143.078036 2.18913172,173.798208 C4.29136162,189.505788 8.97216309,204.760055 16.043355,218.947748 C16.4114542,219.565866 16.576757,220.283431 16.5161252,221 C15.7658594,219.399244 15.0258712,217.798487 14.2653278,216.207992 C7.54802597,202.007787 3.24126876,186.791675 1.52108683,171.181587 C1.14081512,167.764588 0.904430006,164.327066 0.55499114,160.920328 C0.425573882,160.12428 0.250567506,159.336291 0.0308328411,158.560238 L0,147.303637 Z"/><path d="M219.300442,21.225433 C177.154797,7.69790675 136.844247,11.6434352 98.5840805,33.5744248 C73.6309066,47.9218011 43.3057264,81.6278873 40.8657694,97.1742944 C42.4855728,94.5200298 43.7260552,92.3474271 45.0998125,90.2568094 C59.7908142,67.9671354 77.5471401,48.7518993 100.921518,35.306358 C117.247304,25.7378978 135.416582,19.7372697 154.231504,17.7000777 C160.987814,16.8478059 167.792228,16.4335989 174.602069,16.4600544 C203.307446,17.1774233 229.685637,25.457909 253.111275,42.377565 C257.027817,45.2543767 260.791945,48.3329774 264.388387,51.6008783 C260.13384,48.4137111 256.002316,45.0625739 251.614494,42.0906174 C232.131361,28.6881745 209.410844,20.7506149 185.81767,19.1040709 C163.770709,17.3969246 141.633516,20.9516147 121.230572,29.4751744 C118.790615,30.499987 116.668468,32.2421684 114.33103,33.5744248 C109.748422,36.1057119 105.104302,38.5447658 100.50119,41.0350605 C90.4588068,46.5483256 81.3829584,53.6616281 73.6309066,62.0949593 C73.4873797,62.2486812 73.3951124,62.4638918 73.6309066,62.9865462 C74.8918928,61.7670192 76.142627,60.5167479 77.434369,59.3279653 C78.7261109,58.1391827 80.1716317,56.7659338 81.6274044,55.5873993 C83.0831771,54.4088648 84.5492017,53.4557891 86.0152263,52.4002321 L86.7123568,53.1483453 C85.1950726,54.8153738 83.6846231,56.4824023 82.1810081,58.1494308 C77.81369,62.9762981 73.190074,67.5879548 69.1405655,72.6710252 C57.1253149,87.8075073 48.9955422,105.055103 43.2749707,123.378752 C41.7781903,128.154379 40.0456158,132.930006 39.245966,137.838858 C38.3276394,143.433628 37.9193042,149.100184 38.0259875,154.768762 C38.2705181,166.907433 40.3690389,178.937495 44.2489031,190.442489 C52.5420629,215.7663 68.399508,237.941339 89.6854137,253.980869 C108.11296,268.041567 129.753126,277.293875 152.652708,280.902696 C156.753476,281.579073 160.854244,281.855772 164.893501,282.593637 C160.157114,282.101727 155.410475,281.712298 150.694591,281.087163 C137.395455,279.339098 124.431267,275.619145 112.229386,270.049931 C84.3544152,257.250022 62.7536192,237.706845 48.1856405,210.6108 C36.8162609,189.44842 32.0388661,166.81031 33.1255696,142.901432 C33.6135247,132.879877 35.3351544,122.956634 38.2515297,113.356085 C38.5136738,112.617358 38.591104,111.825752 38.477072,111.050257 C38.1894761,111.362335 37.938393,111.706157 37.7286818,112.07507 C32.7077311,124.290746 29.7158152,137.243993 28.8710227,150.423557 C28.6557324,154.61504 29.4963898,158.898757 30.121757,163.100489 C30.9829183,168.931672 32.0901257,174.732112 33.1050658,180.522303 C33.1870811,181.024461 33.2485926,181.79307 33.5766541,181.967288 C36.4471918,183.514755 36.4984514,186.517456 37.2058339,189.06924 C43.4287495,211.276929 53.9677235,231.107052 70.2785286,247.504054 C92.6994783,269.978194 119.641525,283.905397 151.16618,288.568295 C175.056471,292.231155 199.489208,289.61042 222.058208,280.964185 C239.784658,274.275597 255.894693,263.91325 269.329813,250.557995 C270.549791,249.358965 271.708258,248.098445 273,247.001896 C251.388952,270.951766 224.621188,285.760308 192.942755,291.868191 C222.847606,288.926979 247.185665,274.835806 268.448147,254.47278 C266.848848,256.122728 265.280304,257.813669 263.629745,259.412376 C261.979186,261.011084 260.144092,262.702025 258.31925,264.25974 C243.522464,277.008472 226.329063,286.676833 207.746528,292.698289 C195.488697,296.657363 182.769722,299.013516 169.90669,299.708007 C138.694384,301.69857 107.682909,293.470997 81.5658929,276.270543 C56.4999478,260.037512 38.0977509,238.045034 26.2055234,210.682537 C19.3650587,195.162906 15.3350404,178.552607 14.303044,161.624758 C11.9245985,121.759549 23.5297722,86.4342584 49.7131766,56.13055 C63.4991265,40.2170792 80.6599867,27.5752565 99.9475859,19.1245672 C103.415822,17.7487789 106.970621,16.6019417 110.589079,15.691445 C111.543754,15.5006665 112.535261,15.6646421 113.377601,16.1526107 C112.655444,16.8125022 111.880554,17.4123052 111.060667,17.9460327 C104.468683,21.5021324 97.7331711,24.7200439 91.2642094,28.5630912 C58.6015915,48.1165155 36.9392839,76.3603506 26.3182945,112.905168 C22.1257481,127.548742 20.3935593,142.786362 21.1923344,157.996922 C21.9478599,175.225416 25.7918056,192.178336 32.5412101,208.048769 C32.7409295,208.545667 33.132729,208.941016 33.6279137,209.145318 C33.197333,207.813062 32.8077601,206.470558 32.3361717,205.158797 C27.9667242,193.119733 25.483824,180.478221 24.975293,167.681401 C24.6472315,159.083223 24.2371547,150.464549 24.58572,141.897116 C25.2004961,127.351969 28.5606193,113.05413 34.489075,99.7568221 C52.7374931,58.4363783 84.0263537,31.6682733 126.951144,18.2842209 C145.491117,12.6071071 164.990543,10.7488801 184.26963,12.8219697 C195.300696,13.9390155 208.484666,16.6957613 219.300442,21.225433 Z M189.959446,294.06129 C158.311768,298.222029 128.304397,292.360101 99.3734784,279.713914 C127.976336,294.583944 158.147737,299.656767 189.959446,294.06129 Z"/><path d="M89.8758235 139.463148C93.6323032 135.709998 98.6905908 133.499216 104.032967 133.275608 109.512154 133.051717 114.609551 133.937105 117.859916 139.249434 119.252929 138.333515 120.470526 137.499011 121.719079 136.715392 126.907432 133.394217 133.266467 132.361234 139.26073 133.865867 145.689229 135.361868 149.651578 139.890577 149.837313 146.658198 150.115916 156.539943 149.940499 166.431864 149.992092 176.313609 149.992092 177.626426 149.372975 177.952086 148.176016 177.931732 145.761459 177.880848 143.346902 177.799433 140.952983 177.931732 138.992446 178.053854 138.321735 177.453419 138.352691 175.448575 138.466196 167.71415 138.352691 159.989903 138.352691 152.255479 138.352691 151.512567 138.352691 150.769655 138.352691 150.026743 138.259824 143.635666 134.431616 140.480835 128.126941 142.048074 125.632094 142.83666 123.283376 144.018946 121.172192 145.548919 120.408181 146.318176 119.997848 147.363028 120.037144 148.439151 119.954595 157.435508 119.933958 166.421687 120.037144 175.418044 120.037144 177.382181 119.500576 178.064031 117.488445 177.931732 115.082771 177.794742 112.671087 177.794742 110.265413 177.931732 108.583478 178.013147 108.04691 177.443242 108.057229 175.774235 108.129459 167.307075 108.057229 158.829739 108.057229 150.332049 108.084897 149.441987 108.05042 148.551101 107.954042 147.665708 107.417474 143.727258 105.116422 141.783475 101.092161 141.742768 97.4926263 141.743994 94.0549505 143.218104 91.5990327 145.813517 90.9300238 146.689773 90.5973528 147.771425 90.6600384 148.86658 90.5878081 157.710283 90.5568523 166.564164 90.6600384 175.407867 90.6600384 177.51448 89.9790096 178.114916 87.9462419 177.982616 85.6142342 177.819786 83.2719079 177.901201 80.9295816 177.982616 79.6294357 177.982616 79 177.636603 79 176.232194 79 162.479845 79 148.727496 79 134.975146 79 133.601268 79.5468868 133.143309 80.8883071 133.194193 82.9520307 133.275608 85.5316852 132.55305 87.079478 133.468969 88.3796238 134.242412 88.5447217 136.878222 89.2257505 138.679529 89.4196461 138.958349 89.6371126 139.220491 89.8758235 139.463148L89.8758235 139.463148ZM161.862812 143.332372C161.862812 140.776556 161.781518 138.476321 161.923783 136.176086 162.120353 135.517674 162.625394 134.998117 163.2753 134.785722 171.983952 133.139776 180.733251 132.02544 189.523197 134.233666 196.402727 135.961398 199.969515 140.449411 200 147.523912 200 156.786191 200 166.038247 200 175.300526 200 177.19183 199.502072 177.795003 197.520524 177.927905 194.763117 178.307829 192.015476 177.167765 190.325978 174.942711 189.462226 173.838599 188.639122 173.920385 187.460354 174.584897 180.814545 178.357282 173.741941 178.674203 166.557558 176.62955 161.019383 175.034721 158.194407 170.976084 158.011494 164.944357 157.81842 158.524146 160.043852 154.976673 165.734453 152.77867 172.390424 150.212631 179.290277 150.437542 186.169807 151.347413 188.202165 151.613218 188.598475 150.989599 188.588313 149.180081 188.588313 144.548941 186.759191 141.849999 182.166063 141.72732 176.57708 141.573971 170.988097 142.320269 165.348305 142.749646 164.301641 142.821209 163.234653 143.097237 161.862812 143.332372ZM179.605293 157.767624C178.11151 157.920973 176.241741 157.97209 174.432943 158.319681 171.572343 158.667893 169.450511 161.1576 169.545123 164.054933 169.545123 167.316155 171.1202 169.718622 174.36181 169.994651 177.360887 170.257907 180.382628 169.998519 183.294021 169.227906 188.598475 167.755755 188.608636 167.418387 188.598475 161.908047 188.578149 161.533473 188.578149 161.158062 188.598475 160.783488 188.781387 159.270444 188.009091 158.554816 186.616926 158.41169 184.401656 158.186778 182.186387 158.002759 179.605293 157.767624ZM452.050607 186.488517C456.894504 187.014372 461.303692 187.797999 465.723231 187.880486 469.185398 187.972101 472.641179 187.533945 475.969936 186.581315 480.596479 185.179035 482.728621 180.518517 481.559048 175.507428 478.667009 176.177727 475.740465 176.690594 472.792422 177.04375 465.236771 177.569605 457.908824 176.920019 452.20586 171.053128 449.007646 167.753646 447.662119 163.598361 447.279161 159.164682 446.792701 153.596806 446.678849 148.018619 449.183599 142.770381 452.464615 135.893023 458.436685 133.222505 465.578328 132.356391 473.020127 131.449033 480.368774 132.4595 487.727772 133.325614 489.580459 133.542142 490.004817 134.470121 489.994467 136.181728 489.942716 149.441521 489.777113 162.711625 489.994467 175.961107 490.201471 187.220589 484.591659 191.881108 474.562308 193.489605 467.953841 194.407215 461.231393 194.085484 454.741661 192.541004 452.671619 192.118258 451.636598 191.334631 452.009206 189.107481 452.094314 188.237058 452.10816 187.361178 452.050607 186.488517L452.050607 186.488517ZM481.921305 153.710226C481.921305 149.585873 481.921305 145.461521 481.921305 141.337168 481.921305 139.84209 481.507297 138.790381 479.851264 138.707894 475.783632 138.501676 471.68495 137.934577 467.658719 138.274837 460.465325 138.872868 456.273491 142.76007 455.331622 149.874578 454.895878 153.876594 455.137285 157.923082 456.045787 161.845511 457.080807 166.681314 460.72408 169.692091 465.67148 170.640693 470.306371 171.4748 475.079464 171.090992 479.520057 169.527117 481.122984 169.214511 482.208758 167.71823 482.004107 166.103905 481.921305 161.979552 481.921305 157.844889 481.921305 153.710226ZM272.957416 172.363999C268.568365 175.478679 263.418984 177.366421 258.046008 177.83046 252.124547 178.269001 246.285186 177.728474 243.226962 171.823472 241.866084 168.85923 241.165935 165.637716 241.174462 162.379548 240.897375 153.200788 241.0821 144.022028 241 134.843268 241 133.405262 241.502862 133.04831 242.826724 133.078906 245.453924 133.150296 248.081123 133.180892 250.708322 133.078906 252.360584 133.007516 252.760822 133.711221 252.709509 135.190021 252.668459 144.062822 252.668459 152.932224 252.709509 161.798226 252.709509 165.938867 254.361771 168.784282 257.614983 169.029049 260.580845 169.253419 263.628806 168.42733 266.635718 168.009187 266.853091 167.94265 267.062895 167.853782 267.26173 167.744023 271.079379 166.408003 272.741904 164.113313 272.495604 159.727906 272.044054 151.70159 272.423766 143.63448 272.331404 135.587767 272.331404 133.701022 272.731641 132.864735 274.804666 133.017714 277.052579 133.180894 279.309476 133.180894 281.557389 133.017714 283.445688 132.895331 284.010126 133.609234 284 135.434788 283.928026 143.787459 284 152.129932 284 160.472405L284 174.750476C284 177.871255 284 177.871255 280.921114 177.871255L280.695339 177.871255C278.899402 177.820261 276.734015 178.360788 275.430678 177.544899 274.301803 176.830995 274.168391 174.566901 273.573166 173.006512 273.511591 172.924923 273.316604 172.792341 272.957416 172.363999ZM510.0877 137.545032C511.520963 136.660268 512.432109 136.001839 513.414918 135.487441 520.085456 131.996963 527.943462 131.620932 534.913867 134.458646 540.810722 136.783724 542.81729 142.020293 542.919666 147.92558 543.093705 157.18474 542.919666 166.557067 542.99133 175.877955 542.99133 177.287405 542.612539 177.853243 541.097374 177.935546 535.118619 178.120729 535.118619 178.172169 535.118619 172.133139 535.118619 165.301937 535.118619 158.460446 535.118619 151.618956 535.131116 149.820517 534.994139 148.024171 534.709115 146.248643 534.332604 142.919858 531.942737 140.173975 528.709885 139.355713 521.912122 137.503881 516.00503 139.551184 510.865757 144.057308 510.184284 144.933986 509.852156 146.034298 509.934136 147.143695 509.862473 156.536599 509.841998 165.929502 509.934136 175.322406 509.934136 177.379997 509.401781 178.048714 507.292837 177.997274 502 177.873819 502 177.997274 502 172.626961 502 154.664191 502 136.711708 502 118.748937 502 116.526739 502.696156 115.960901 504.805101 116.002053 509.923898 116.125509 509.923898 116.002053 509.923898 121.146031 509.923898 125.652156 509.923898 130.168568 509.923898 134.674693 509.903423 135.405138 509.995562 136.19731 510.0877 137.545032ZM414.698978 170.747378C414.779246 172.26786 414.755309 173.792048 414.627335 175.309263 414.380489 175.958917 413.835734 176.45004 413.163774 176.628731 405.395642 178.050485 397.60704 178.746019 389.818439 176.812843 380.883552 174.583043 375.489868 168.036842 375.080481 158.565306 374.895655 155.361892 375.029361 152.148054 375.479634 148.971029 376.840848 140.102972 381.538572 135.32629 390.350643 133.628369 395.282442 132.653729 400.371596 132.814635 405.231887 134.098877 411.87921 135.649914 416.663544 141.458008 416.909672 148.275495 417.052958 150.576894 416.858498 152.89875 416.991549 155.210378 417.093896 157.051497 416.264886 157.460635 414.596631 157.450406 405.027193 157.450406 395.44752 157.450406 385.878082 157.450406 382.715562 157.450406 382.562041 157.644747 383.155654 160.83602 384.271235 166.860571 387.61798 170.440525 393.687153 171.514511 399.757637 172.478307 405.949474 172.381402 411.986784 171.228115L414.698978 170.747378ZM396.020663 151.599738C399.756326 151.599738 403.491989 151.599738 407.227652 151.599738 409.080132 151.599738 409.735152 150.955347 409.397407 149.022172 408.210183 142.343 405.12954 139.294925 398.139245 138.793731 390.268765 138.21071 384.373582 141.269014 383.12495 149.093771 382.787205 151.139459 383.493399 151.609967 385.274235 151.58951 388.856378 151.579282 392.43852 151.599738 396.020663 151.599738ZM296.010366 146.850485C296.010366 137.379424 296.010366 127.918647 296.010366 118.457869 296.010366 116.617131 296.518277 115.989841 298.435904 116 311.157887 116.075536 323.883325 116.075536 336.612218 116 338.571307 116 339.048122 116.689115 338.996295 118.48872 338.903005 122.015944 338.996295 122.026228 335.430546 122.026228 325.956435 122.026228 316.492689 122.087929 307.018578 122.026228 304.727792 122.026228 303.971107 122.725503 304.022934 124.987862 304.147321 130.321547 304.147321 135.655232 304.022934 140.988916 303.971107 143.189575 304.831447 143.827149 306.946019 143.806582 315.964046 143.724315 324.982073 143.806582 333.989735 143.806582 336.985378 143.806582 338.560942 146.192344 337.099399 148.77349 336.798798 149.30823 335.575664 149.544749 334.767151 149.544749 325.676565 149.596167 316.585979 149.544749 307.495393 149.544749 304.064397 149.544749 304.054031 149.544749 304.054031 152.866305 304.054031 160.373226 303.991838 167.880147 304.054031 175.397352 304.054031 177.299791 303.597947 178.029916 301.524837 177.999065 296 177.906514 296 177.999065 296 172.569402L296.010366 146.850485ZM222.107671 138.670665C225.738234 135.821387 229.687628 133.328269 234.974056 133.460557 234.974056 135.912971 235.06662 138.273801 234.902062 140.583752 234.902062 141.051847 233.873574 141.733639 233.266766 141.835399 230.063835 142.365095 227.050958 143.696202 224.514333 145.702276 223.334894 146.51787 222.67187 147.883903 222.765903 149.304577 222.837897 158.076282 222.765903 166.847987 222.837897 175.619692 222.837897 177.512427 222.241374 178.082282 220.390096 177.990698 217.921725 177.85841 215.432784 177.90929 212.954127 177.990698 211.668517 177.990698 211 177.685418 211 176.26078 211 162.502838 211 148.751681 211 135.007308 211 133.653901 211.514244 133.155277 212.871848 133.206157 214.928824 133.277389 217.458905 132.56507 219.042777 133.440205 220.534084 134.264461 221.058613 136.727051 222.107671 138.670665ZM556.030013 146.657001C556.030013 140.228565 556.030013 133.800129 556.030013 127.371692 556.030013 126.336518 555.680662 125.011494 557.365766 125.104659 559.050869 125.197825 560.848998 124.204057 561.475775 126.895512 562.780703 132.423346 562.862903 132.402642 568.534715 132.402642 570.48697 132.402642 572.439224 132.402642 574.391478 132.402642 575.562831 132.402642 576.056032 132.868471 575.953282 134.017515 575.943001 134.093075 575.943001 134.169694 575.953282 134.245254 576.107407 138.251381 576.107407 138.241029 572.172073 138.251381 570.117069 138.251381 568.062064 138.334195 566.08926 138.313491 564.712407 138.313491 564.034255 138.851782 564.034255 140.311379 564.034255 148.851572 563.931505 157.402116 564.137006 165.931957 564.239756 170.26934 566.31531 171.92562 570.63082 171.956675L572.88105 171.956675C575.963557 171.956675 575.963557 171.956675 575.963557 175.0622 575.963557 178.167725 575.963557 178.053855 572.994075 177.971041 569.925402 177.998244 566.858816 177.801043 563.81848 177.380992 559.431045 176.594259 556.687614 173.633659 556.430738 169.099593 556.050563 162.546935 556.132763 155.963223 556.019738 149.431269 556.009463 148.468557 556.030013 147.557603 556.030013 146.657001ZM353.986496 138.97099C358.073966 135.265355 363.410388 133.221364 368.939907 133.243437 369.0416 134.72076 369.014184 136.204081 368.85797 137.676685 368.548154 138.409802 367.898162 138.946245 367.11682 139.113669 363.531629 139.522228 360.120328 140.872961 357.233229 143.027157 355.744008 144.059347 354.889796 145.778548 354.969734 147.582702 355.05167 156.75494 354.969734 165.876221 355.05167 175.028076 355.05167 177.168265 354.611261 178.085489 352.214619 177.993766 347.093587 177.830704 347.093587 177.993766 347.093587 172.785973 347.093587 160.434026 347.093587 148.082079 347.093587 135.740324 347.093587 134.721186 346.45858 133.263819 348.49675 133.090566 351.856147 132.82559 352.429702 133.029418 352.982773 135.251138 353.249067 136.311041 353.535845 137.360752 353.986496 138.97099ZM436 155.494336C436 162.280727 436 169.067118 436 175.843304 436 177.333248 435.66 177.945554 434 177.97617 428 178.078221 428 178.129246 428 171.934751 428 159.862118 428 147.779281 428 135.706648 428 133.747269 428.4 132.951271 430.54 133.002297 435.96 133.134963 435.96 133.002297 435.96 138.502845L436 155.494336ZM38.1597891 245C33.3882212 237.397322 28.3365829 229.937898 23.9073231 222.151037 15.5093988 207.405157 9.61895989 191.400903 6.47035403 174.774996 3.95959585 161.934259 3.35856758 148.801199 4.68620253 135.789528 7.15497031 112.418712 15.982371 91.5139063 29.2079127 72.2053557 29.2908965 72.0927992 29.4049992 71.9904752 29.7369344 72 28.8967235 73.37185 28.0357666 74.7225276 27.2059287 76.0936701 26.3760908 77.4648125 25.515134 78.9178142 24.706042 80.3503511 14.1413762 98.5706985 7.83665 118.889139 6.25252158 139.821096 4.43725116 164.24585 9.08434344 187.504109 18.8038199 209.892614 23.9330952 221.634727 30.3581459 232.783675 37.9627026 243.137702 38.3050108 243.59816 38.6265729 244.079083 39 244.560007L38.1597891 245ZM44.7975999 145C43.2433435 188.413913 57.4259334 224.56657 93 251 75.9162022 239.58819 62.4227418 223.548018 54.0924624 204.749179 45.5649036 186.068563 42.3486071 165.393586 44.7975999 145L44.7975999 145ZM432.109479 116.010959C436.521126 116.010959 435.967152 115.592025 435.987296 119.934631 435.987296 123 435.987296 123 432.965621 123L431.867745 123C428 123 428 123 428 119.117199 428 116.05183 428 116.05183 431.021676 116.05183L432.109479 116.010959Z"/><polygon points="90 17.673 102.831 12 103 12.356 90.109 18"/><polygon points="39 253.268 49 263 49 262.948 39.247 253"/><path d="M25.6476868,237 C23.7686833,234.069767 21.886121,231.146512 20,228.230233 L20.3629893,228 L26,236.706977 L25.6476868,237 Z"/><polygon points="267 53.151 273 60 272.952 60 267.194 53"/><path d="M116,7.16724739 C115.876589,7.24836476 115.748552,7.32166951 115.616592,7.38675958 C112.799149,8.44105868 109.921457,9.31380513 107,10 L115.939462,7 L116,7.16724739 Z"/><polygon points="80 23.694 85.844 20 86 20.296 80.156 24"/></g></svg>